<svg xmlns="http://www.w3.org/2000/svg" width="400" height="210" viewBox="0 0 400 210">
  <g fill="none">
    <path fill="#FFF" d="M224.49 209.79V.11h.63v209.68h-.63m14.9-37.19c1 3.35 3 4.89 6.51 4.89 3 0 5.57-1.72 5.57-4.83 0-2.63-1-3.9-6.18-5.82-3.37-1.27-3.72-2.15-3.72-3.39 0-2.15 1.47-3.37 3.6-3.37a4.46 4.46 0 0 1 4.41 3.44l1.44-.43a5.76 5.76 0 0 0-5.85-4.37c-3.39 0-5.27 2-5.27 4.73 0 6.05 9.9 4.12 9.9 9a3.39 3.39 0 0 1-3.65 3.64c-2.88 0-4.51-1.21-5.21-4l-1.54.48-.01.03zm26.71 4.63v-1.37h-9.24v-7.44h6.31v-1.36h-6.31v-6.74h8.76V159h-10.43v18.28l10.91-.05zm3.32 0h1.67V159h-1.67v18.28-.05zm5.14-16.91H280v16.91h1.67v-16.91h5.42V159h-12.5v1.36l-.03-.04zM304 177.23v-1.37h-3V158.7h-1.06l-4.1 1.34v1l3.49-.51v15.34h-3.14v1.37l7.81-.01zm1.77-3.39c1 2.48 3.19 3.64 6.15 3.64 3.62 0 6.25-1.57 6.25-5.42 0-2.51-1.47-3.85-3.49-4.61 2.12-1 2.93-2.2 2.93-4.3 0-3.42-3.16-4.45-5.52-4.45a6.88 6.88 0 0 0-5.52 2.88l1.19.86c1.27-1.6 2.5-2.38 4.2-2.38 2.45 0 4 1 4 3.24 0 2.43-1.72 3.55-5 3.55h-1.37v1.36h1.67c3.45 0 5.27 1.27 5.27 3.9s-1.44 4-4.51 4a4.66 4.66 0 0 1-4.88-3l-1.34.76-.03-.03zm21.87-15.14c-3.47 0-5.72 1.57-5.72 4.63 0 2 1.21 3.47 3.49 4.28-3.14 1.42-4.2 3.09-4.2 4.91 0 3.65 2.63 5 6.43 5s6.43-1.31 6.43-5c0-1.82-1.06-3.49-4.2-4.91 2.28-.81 3.5-2.28 3.5-4.28 0-3.06-2.25-4.63-5.72-4.63h-.01zm-4.76 13.82c0-2 1.77-3 4.76-4.21 3 1.22 4.76 2.23 4.76 4.21 0 2.49-2.07 3.6-4.76 3.6s-4.76-1.11-4.76-3.6zm.71-9.27c0-2.15 1.67-3.19 4.05-3.19s4.05 1 4.05 3.19c0 2-1.77 3.09-4.05 3.7-2.28-.61-4.05-1.72-4.05-3.7zm24.73-3a7.08 7.08 0 0 0-4.32-1.55c-5.17 0-7.29 5.44-7.29 10 0 4.21 1.19 8.73 6.28 8.73 3.32 0 6.18-2.17 6.18-5.67s-2.15-6-5.88-6a6.82 6.82 0 0 0-4.91 2.43c0-3.47 1.42-8.15 5.59-8.15a4.43 4.43 0 0 1 3.6 1.39l.76-1.24-.01.06zm-.84 11.32c0 2.83-1.62 4.58-4.46 4.58s-4.61-2.1-4.61-5.39c0-.66 1.9-3.57 4.58-3.57a4.15 4.15 0 0 1 4.48 4.38h.01zm-106.95-37.82h8.76l-9.55 15.55v1.36h11.75v-1.36h-9.67l9.54-15.5v-1.42h-10.83v1.37zm14.66-1.36v12.3c0 4.15 2.17 6.23 6.61 6.23s6.61-2.07 6.61-6.23v-12.3h-1.67v12.46c0 3.49-1.7 4.71-4.94 4.71s-4.94-1.21-4.94-4.71v-12.46h-1.67zm18.28 18.28h1.67v-6.1l3.45-4 5.8 10.07h1.87l-6.61-11.29 5.9-7h-2.05l-8.36 9.92v-9.92h-1.67v18.32zm15.47-18.28v12.3c0 4.15 2.17 6.23 6.61 6.23s6.61-2.07 6.61-6.23v-12.3h-1.67v12.46c0 3.49-1.7 4.71-4.94 4.71s-4.94-1.21-4.94-4.71v-12.46h-1.67zm18.28 18.28h1.67v-16.92l9.78 16.91h1.72v-18.27h-1.67v15.24h-.05L310 132.39h-2.81v18.28h.03zm19.95 0v-8.81h6.61v-1.36h-6.61v-6.74h9.07v-1.36h-10.73v18.28l1.66-.01zm10.67-16.91h5.42v16.91h1.67v-16.92h5.42v-1.36h-12.5v1.36l-.01.01zm-94.44-9.6V116h7.35v8.19h3.64v-19.11h-3.64v7.61h-7.35v-7.61h-3.64v19.07l3.64.01zm28.35 0v-3.06h-9.27v-5.34H269v-3.06h-6.53v-4.55h9v-3.06h-12.63v19.07h12.91zm7.21 0v-19.08h-3.64v19.07l3.64.01zm4.66 0h6.31c5 0 8.53-2.8 8.56-9.54.03-6.74-3.51-9.54-8.56-9.54h-6.31v19.08zm3.64-16h2.43c4.18 0 5.16 3.06 5.16 6.47 0 3.41-1 6.47-5.16 6.47h-2.43v-12.95.01zm27.06 16v-3.06h-9.28v-5.34h6.53v-3.06h-6.53v-4.55h9v-3.06h-12.63v19.07h12.91zm15 0v-3.06H321v-16h-3.64v19.07l11.96-.01zm2.75 0h7c4.86 0 6.95-2.06 6.95-5s-.85-4-3.33-5a4.25 4.25 0 0 0 2.9-4.33c-.21-3.41-2.67-4.68-6.47-4.68h-7.08v19.07l.03-.06zm3.64-8.51h3.65c2.12 0 3 1 3 2.78 0 1.78-.92 2.77-3 2.77h-3.65v-5.55zm0-7.61h3.65c1.75 0 2.62 1 2.62 2.32 0 1.32-.87 2.33-2.62 2.33h-3.65V108v.04zm27.06 16.12v-3.06h-9.27v-5.34h6.5v-3.06h-6.53v-4.55h9v-3.06h-12.6v19.07h12.9zm6.71 0v-7.77h3.15l3.59 7.77h4l-4.2-8.51a4.72 4.72 0 0 0 3.49-4.91c0-3.15-1.77-5.65-6.1-5.65h-7.61v19.07h3.68zm0-16.12h3.33c2 0 3.09.9 3.09 2.7 0 1.8-.87 2.7-3.73 2.7h-2.7V108l.01.04zm27.59 1.64a6.74 6.74 0 0 0-6.92-4.86c-6.11 0-8 5.23-8 10.09 0 5.39 2.4 9.51 7.59 9.51a6 6 0 0 0 5-2.22v2h2.64v-9.64h-7.13v3.06h3.62a3.77 3.77 0 0 1-4 3.78c-2.54 0-4-2.54-4-6.55 0-4.23 1.32-6.92 4-6.92 1.9 0 3 .79 3.83 2.7l3.38-.9-.01-.05zm-146.32-19.8c0 3.09-1.22 4.18-3.67 4.18s-3.67-1.08-3.67-4.18v-12.1h-3.64v11.95c0 5.58 3.43 7.4 7.32 7.4s7.32-1.82 7.32-7.4V77.78h-3.64v12.1h-.02zm11.44 7v-13.6h.05l7.8 13.58h3.51V77.78h-3.43v13h-.05l-7.51-13h-3.8v19.08l3.43.02zm19.71 0v-19.1h-3.65v19.08l3.65.02zm7.9 0h4.07l5-19.08h-3.59l-3.54 14.06h-.05l-3.38-14.06h-3.59l5 19.08h.08zm24.52 0V93.8h-9.28v-5.35h6.53v-3.06h-6.53v-4.55h9v-3.06h-12.63v19.08l12.91.02zm6.71 0v-7.79h3.15l3.59 7.77h4l-4.2-8.51a4.72 4.72 0 0 0 3.49-4.92c0-3.15-1.77-5.65-6.1-5.65h-7.61v19.08l3.68.02zm0-16.12h3.33c2 0 3.09.9 3.09 2.7 0 1.8-.87 2.7-3.73 2.7H321v-5.42l.03.02zm26.32 1.08a6.94 6.94 0 0 0-6.74-4.3c-3.3 0-6.15 1.93-6.15 5.34 0 5.87 9.83 5.13 9.83 8.88 0 1.85-1.4 2.54-3.23 2.54-2.14 0-3.28-1.19-4.15-3l-3 1.32a7.56 7.56 0 0 0 7.13 4.52c4.23 0 6.68-2 6.68-5.86 0-6.19-9.83-5.5-9.83-8.78 0-1.48 1.14-2.11 2.72-2.11a3.51 3.51 0 0 1 3.39 2.46l3.33-1 .02-.01zm8 15V77.78h-3.64v19.08l3.64-.02zm3.12-19.08v3.06h5v16h3.64v-16h5v-3.04l-13.64-.02zm20.85 3.67h.05l2.14 8.27H377l2.25-8.27h.07zm-7.8 15.41h3.62l1.13-4.12h6l1.05 4.12h3.62l-5.42-19.08H377l-5.5 19.08h.02zm3.65-23.46v3.06h3.17v-3.05l-3.17-.01zm5 0v3.06h3.17v-3.05l-3.17-.01zm6.21 4.39v3.06h5v16H395v-16h5v-3.05l-13.62-.01z"/>
    <circle cx="104.87" cy="105.03" r="104.87" fill="#E80036"/>
    <path fill="#5A0F09" d="M93.33 49.79h1.15v-1.15h1.16v-1.15h-1.16v-1.16h-1.15v1.15h-1.15v1.15h1.15v1.16zm20.37 67h1.15v-.92h.92v-1.15h-.92v-.92h-1.15v.92h-.92v1.15h.92v.92zm-24.7-67h1.15v-1.15h1.15v-1.15h-1.2v-1.16H89v1.15h-1.2v1.15H89v1.16zm25.77 101.35c1.28 8.36 1.56 16.22 2.49 20.28l1.12-.26c-.89-3.84-1.19-11.78-2.48-20.2l-1.13.18zm-11.57-45.8a2.5 2.5 0 0 0-2.86.89l.39.39c.37-.53.964-.86 1.61-.89a1.87 1.87 0 0 1 1.77 1.67v1.35h.55v-1.43a2.45 2.45 0 0 0-1.52-1.98h.06zm3.48 0a2.46 2.46 0 0 0-1.47 2v1.43h.56v-1.37a1.87 1.87 0 0 1 1.77-1.67c.646.03 1.24.36 1.61.89l.39-.39a2.5 2.5 0 0 0-2.91-.89h.05zm.93 1.24c-1 0-1.39.39-1.39.76h1.15a.4.4 0 0 0-.26.36.46.46 0 1 0 .92 0 .39.39 0 0 0-.24-.35h1.12c-.05-.35-.64-.78-1.35-.78l.05.01zm22.57-36.05L129 68.75l-1.11 1.78 1.11 1.78 1.18-1.78zM129 111.16a2.79 2.79 0 1 0-2.8-2.8 2.8 2.8 0 0 0 2.8 2.8zm0-5a2.21 2.21 0 1 1-2.22 2.21 2.21 2.21 0 0 1 2.22-2.22v.01zm-.55 3.69h1.15v-.92h.92v-1.15h-.92v-.92h-1.15v.92h-.92v1.15h.92v.92zm-20.1-60h1.15v-1.21h1.16v-1.15h-1.16v-1.16h-1.15v1.15h-1.15v1.15h1.15v1.22zm-4 0h1.15v-1.21h1.15v-1.15h-1.15v-1.16h-1.2v1.15h-1.16v1.15h1.16l.05 1.22zm-4.1 0h1.15v-1.21h1.16v-1.15h-1.16v-1.16h-1.2v1.15H99v1.15h1.15l.1 1.22zm2.2 56.72c-1 0-1.39.39-1.39.76h1.17a.4.4 0 0 0-.26.36.46.46 0 1 0 .92 0 .39.39 0 0 0-.25-.35h1.11c-.04-.43-.63-.84-1.34-.84l.04.07zm10.55 41.2a3.09 3.09 0 0 0-.17-1 .9.9 0 0 0-.82-.6 1.73 1.73 0 0 0-1.09.6c-.3.28-.6.61-.9.9a5.59 5.59 0 0 1-3.83 1.54 5.32 5.32 0 0 1-3.3-1.14 3.46 3.46 0 0 0-2-1.07 1.14 1.14 0 0 0-1 .73 3.76 3.76 0 0 0-.21 1.43v.13c0 .36.21 1.55.53 3.37.47 2.69 1.23 6.59 2 10.07.4 1.74.83 3.38 1.23 4.72a11.77 11.77 0 0 0 1.23 3 2.65 2.65 0 0 0 2.13 1.24 2.69 2.69 0 0 0 2.46-2.25c.26-1 1.73-7.51 2.74-13.3a.49.49 0 0 0 0-.07c.3-1.73.56-3.39.74-4.84a28.71 28.71 0 0 0 .24-3.1c.02-.13.02-.27.02-.36zm-4.84 21.32c-.28 1-.85 1.39-1.35 1.39a1.51 1.51 0 0 1-1.19-.76 3.27 3.27 0 0 1-.32-.58 22.82 22.82 0 0 0 4-6.06l.33-.67c-.68 3.36-1.3 6.09-1.46 6.69l-.01-.01zm.11-6.52a25.29 25.29 0 0 1-3.42 5.41c-.23-.66-.47-1.45-.71-2.32v-.06a28.77 28.77 0 0 0 6.54-8.86 37.85 37.85 0 0 1-2.4 5.84l-.01-.01zm3.37-11.66a29.49 29.49 0 0 1-7.85 13.43c-.7-2.77-1.39-6.08-1.93-8.91s-1-5.33-1-6a15.22 15.22 0 0 0 4 6.54l.75-.86a10.86 10.86 0 0 1-2-2.39 6.88 6.88 0 0 0 1.85.24 7.86 7.86 0 0 0 5.14-1.73l-.81-.81a6.88 6.88 0 0 1-4.33 1.4 4.11 4.11 0 0 1-2.83-.89 12.29 12.29 0 0 1-.84-2.32l.39.33a6.46 6.46 0 0 0 4 1.38 6.73 6.73 0 0 0 4.62-1.86c.34-.32.65-.66.9-.9l.12-.11v.61a25.09 25.09 0 0 1-.17 2.86l-.01-.01zm-15.49-3.68c-1 5.87-2 15-6.19 22.68l1 .55c4.36-7.92 5.37-17.23 6.32-23.05l-1.13-.18zm1.21 12.11c-.18 4.81-.79 9.65-2.68 11.79l.87.75c2.26-2.68 2.74-7.63 3-12.5.26-4.87.08-9.68.73-11.66l-1.09-.36c-.8 2.42-.62 7.15-.83 11.98zM102.47 31l-1.11-1.78-1.12 1.78 1.11 1.78 1.12-1.78zm29.58-18.71l-2.52-.75-.83 2.79-2.79-.83-.75 2.5 2.79.83-.83 2.8 2.52.75.83-2.79 2.79.83.74-2.52-2.79-.83.84-2.78zM149 88.74L147.89 87l-1.11 1.78 1.11 1.78 1.11-1.82zm50.16 1.89l.09.73-6.48.84a.63.63 0 0 1-.61-.25h-.08a14.16 14.16 0 0 1-1.11 2.66l2 1.46.22-.3c-.7-.45-.5-.8 0-1.81l6.37-.83.19 1.45.92.29-.24-1.85 2.73-.36v-.19a6.83 6.83 0 0 1-3.54-1.92l-.46.08zm1.29-17.91l-2.32-.87a7.1 7.1 0 0 1-.66.36 18.6 18.6 0 0 0 2.11 1.4 4.7 4.7 0 0 0 .87-.9v.01zM138 136.39v1l2.61-1.71 1.09 1.37-3 2.32.54.81 3.13-2.39.73.85-1.19 1 .64.64 2-1.58-.93-1.09 1.73-1.58-.76-2.34.56-.38v-.61h-1.6l.89 3-.58.46-1.07-1.33V132h-2.44v.84l.54.61-.54.4-1.65-1.85h-.76v.48l2.06 2.42-2 1.49zm-.37-47.7l1.11 1.78 1.11-1.78-1.11-1.78-1.11 1.78zm62.52 9.21l-6.67.33c-.54 0-.61-.28-.61-.28h-.09l-1.17 1.75L193 101h.08a1.64 1.64 0 0 1 .34-.92l6.8-.33a.59.59 0 0 1 .52.24h.09l1.26-1.7a7.38 7.38 0 0 1-1.41-1.33h-.08s.09.91-.46.94h.01zm-10.66-18.77h-.08a14.18 14.18 0 0 1-.73 2.79l2.16 1.17.18-.33c-.76-.34-.61-.72-.31-1.78l6.19-1.72.39 1.41 1 .15-.5-1.8 2.65-.74-.05-.19a6.88 6.88 0 0 1-3.77-1.4l-.35.1.2.71-6.3 1.74a.62.62 0 0 1-.68-.11zm2.5 11.75h.08c-.08-.4 0-1 .15-1l6.86-1.37a.6.6 0 0 1 .62.2h.08c.03-.833.124-1.662.28-2.48-1.22-.48-1.52-2.89-3.19-2.56l-5.49 1.1a.59.59 0 0 1-.55-.16h-.09l-.92 2.21 1.44 1.18-.86 1.81a9.59 9.59 0 0 1 1.6 1.08l-.01-.01zm-.26-4.38l6.76-1.35a6.14 6.14 0 0 0-.2 1.65L192 88.07l-.64-.54.37-1.03zm4.81 21.69a.58.58 0 0 1 .5.28h.1l.93-1.89 2.6 1.83a9.59 9.59 0 0 1 1.63-2.18 16.79 16.79 0 0 1-1.3-3.13l-2.83-.07a.61.61 0 0 1-.55-.33h-.08l-1.21 2.12-3.26-2.25a8.33 8.33 0 0 1-1.28 2.44 15.26 15.26 0 0 1 1.59 3.12l3.16.06zm1.59-3.35l3.07.07.07.14a14.29 14.29 0 0 0-1.69 2.13l-2-1.49.55-.85zm-5.3 1.25a13 13 0 0 0 1.33-2.25l2.61 1.77-.41.8-3.39-.08-.14-.24zM166 90.47l1.11-1.78-1.11-1.78-1.11 1.78 1.11 1.78zm-75.62 112.3c.064.414.182.817.35 1.2l1.89-1.61v-.76a18.94 18.94 0 0 0-2.23 1.17h-.01zm65.36-114.08l1.11 1.78 1.15-1.78-1.11-1.78-1.15 1.78zm-66.6 109.68c.07-.38 1.15-6 1.26-6.56.11-.56.42-.53.42-.53v-.09l-1.43-1.55-1.56 1.08v.08c.322.092.608.28.82.54 0 0-1.21 6.33-1.28 6.68a.58.58 0 0 1-.35.45v.09l1.36 1.63a7.46 7.46 0 0 1 1.62-1.06v-.07s-1-.14-.86-.69zm12 1.61s.5-6.1.54-6.52a.62.62 0 0 1 .37-.54v-.08l-2.3-1.81-3.23 1.77-.59 7.05a.58.58 0 0 1-.31.49v.09c1.77 1.4 3.22 2.66 5 4.27a7.23 7.23 0 0 1 1.5-1.33v-.08c-.49 0-3-2.32-3-2.32l2.02-.99zm-3.39-.17l.63-7.59h.05l1.44 1.07-.6 7.23-.43.23-1.09-.94zm-5.9-8.37v.07c.326.079.62.257.84.51 0 0-.92 6.38-1 6.73a.6.6 0 0 1-.34.47v.09l1.42 1.56c.472-.44 1-.817 1.57-1.12v-.08s-.95-.11-.87-.66c0-.38.88-6.07 1-6.6.12-.53.4-.55.4-.55v-.09l-1.49-1.49-1.53 1.16zm17.22 1.72a.59.59 0 0 1 .26-.52v-.09l-2.28-1.32a29.57 29.57 0 0 1-3.17 2.17s.06 6.21.06 6.62a.62.62 0 0 1-.31.57v.08l1.45 1.15 1.27-1.27v-.06l-.59-.43-.07-7.45.27-.17 1.32.81s.06 6.05.06 6.6c0 .55-.31.6-.31.6v.09l1.71 1.24 1.32-1.37v-.07a1.63 1.63 0 0 1-.9-.38s-.06-6.43-.06-6.79l-.03-.01zm31-7l-.33-.21-.47.71a4.67 4.67 0 0 1-3.56 2l-5-.07a4.31 4.31 0 0 1-.17 2.67h2.45l-.41.62a5.15 5.15 0 0 1-4.23 2.37h-2.8a2.3 2.3 0 0 1 .21 1.14c0 1-.43 1.22-.43 1.22h2.32a3.17 3.17 0 0 0 1.48-.4 6.46 6.46 0 0 0-1.37 3.37v1.16a7.78 7.78 0 0 1 2.88-.25v-2.32a8.37 8.37 0 0 1 .88-4l1.94-2.9a6.65 6.65 0 0 0 3.58-1v4.92a3.33 3.33 0 0 1-2.06 1h-2.52a6.31 6.31 0 0 1 0 2.19 4.9 4.9 0 0 0 2.63-.49A7 7 0 0 0 135 200a4.47 4.47 0 0 1 2.17 0v-3a4.23 4.23 0 0 1 .2-1.52h2.76v-.46c-.55 0-.76-.45-.83-1.64v-2.22c0-1.47-.06-3.46.8-4.75l-.03-.25zm-17.6 9.35v-.08l-2.28-.85 1.7-3.58a8.37 8.37 0 0 1-2.62-.88 15.62 15.62 0 0 1-2.82 2.07l.43 3.15a.58.58 0 0 1-.19.54v.1l2 .62-1.39 2.85a9.37 9.37 0 0 1 2.4 1.26c.9-.697 1.868-1.3 2.89-1.8 0 0-.33-2.39-.39-2.81a.62.62 0 0 1 .35-.54l-.08-.05zm-3.86-.64l-.46-3.35.2-.17c.78.395 1.598.713 2.44.95l-1.34 2.86-.84-.29zm2.11 4.64a14.57 14.57 0 0 0-2.37-1.33l1.14-2.25.94.45.43 3-.14.13zm-6.16-.08s-.35-6.11-.38-6.53a.6.6 0 0 1 .28-.58v-.08A14.48 14.48 0 0 1 112 191l-1.59 1.86.27.25c.51-.68.84-.45 1.81.07l.37 6.42-1.47.08-.35.9 1.87-.1.15 2.74h.2a6.81 6.81 0 0 1 2.16-3.39v-.36l-.86-.04zm42.63-175l.63-1-1-.65-.63.95-.95-.63-.65 1 1 .63-.64 1 1 .65.63-.95.95.63.65-1-.99-.63zM189 77.76a1.67 1.67 0 0 1 0-1l6.36-2.41a.59.59 0 0 1 .57.07h.09l.67-2a7.34 7.34 0 0 1-1.74-.83h-.07s.37.89-.16 1.09L188.54 75c-.51.19-.67-.08-.67-.08h-.09l-.57 2 1.73.76.06.08zm1.21 71a3.86 3.86 0 0 0 .33-2.16 5.76 5.76 0 0 1-2.83 0v2.75a5.17 5.17 0 0 1-.38 2.34 21.26 21.26 0 0 1-2.47 0l.1 5.09a5.47 5.47 0 0 1-.76 3.2h-3.21a5.7 5.7 0 0 0-3.39 1 9 9 0 0 0 1.13-4.12v-3.14a3.63 3.63 0 0 1 2-.79h2.38a7.48 7.48 0 0 1 0-2.56 6.13 6.13 0 0 0-2 .21 3.9 3.9 0 0 0 .33-2.16 5.83 5.83 0 0 1-2.84 0v2.75a4.44 4.44 0 0 1-.42 2.41l-.05.07a2.32 2.32 0 0 1-1.93.66v4.36c0 .88.17 3.18-.4 4.38l-1.47 2.21.35.2s1.47-2.94 4.47-2.94h6.66a3.46 3.46 0 0 1 .25-2.48h-1.3a13.8 13.8 0 0 0 1.38-1.49 4.07 4.07 0 0 1 2.44-1.13H191a7.38 7.38 0 0 1 0-2.56c-1.77 0-2.43.14-3.41 1.28a4.07 4.07 0 0 0 .24-1.32v-2.84a3.58 3.58 0 0 1 2-.79h2.37a7.5 7.5 0 0 1 0-2.56 6.17 6.17 0 0 0-1.97.13h-.02zm-6.5-85.29l5.74-3.12.4.11a11.9 11.9 0 0 1-1.11 2.1v.08a6.89 6.89 0 0 1 1.87.35h.09l1-2.23-1.7-.61.42-1.88a9.54 9.54 0 0 1-1.84-.58h-.07c.19.36.28.93.14 1l-5.9 3.21a.63.63 0 0 1-.65 0l-.1.1c.067.96.04 1.925-.08 2.88l2.37.65.1-.35c-.78-.18-.72-.6-.66-1.71h-.02zM201 116a3.42 3.42 0 0 0 .32-2 5.2 5.2 0 0 1-2.55 0v2.46a4.53 4.53 0 0 1-.35 2.12 5.18 5.18 0 0 1-2.76.77v.44c.58 0 .84.95.84 1.52v.85c0 1.33 0 3.84-.55 4.69l-.75 1.19-3.61 5.45-2 3v.07-7l.94-1.42a3.6 3.6 0 0 1 2.16-1h1.64a6.57 6.57 0 0 1 0-2.32 6.94 6.94 0 0 0-1.19.07 3.79 3.79 0 0 0 .35-2.16 5.75 5.75 0 0 1-2.79 0v2.7a5.18 5.18 0 0 1-.36 2.28l-.89 1.34c-.28.31-1.08.94-3.12.94v.45c.59 0 .85.94.85 1.52v6.69c0 1.33 0 3.84-.56 4.69-.26.41-.79 1.17-.79 1.17l.31.19s.68-.92 1.48-2.13l.23-.36a5.84 5.84 0 0 1 4.47-2.49h2.39a2.57 2.57 0 0 1 .85-2.1c-2.85 0-4.61-.34-6.28 1.77l-.17.25a7.45 7.45 0 0 0 .42-2.41l.47-.71a6.55 6.55 0 0 1 5-2.7h2.71a2.9 2.9 0 0 1 .94-2.36 3.16 3.16 0 0 1 1.79-.7h2.08a6.56 6.56 0 0 1 0-2.24 5.35 5.35 0 0 0-1.77.19 3.38 3.38 0 0 0 .3-1.89 5.1 5.1 0 0 1-2.48 0v2.41a3.9 3.9 0 0 1-.36 2.11l-.07.09c-2.23 0-3.85-.14-5.28.8l2.69-4.06.15-.23 1.11-1.68.16-.24v-.08l.19-.28a3.82 3.82 0 0 1 2.36-1.12h2.61a7.35 7.35 0 0 1 0-2.51c-1.91 0-2.76.16-3.93 1.63a8.1 8.1 0 0 0 .61-3v-2a4.66 4.66 0 0 1 2.36-.75h1.58a6.7 6.7 0 0 1 0-2.3 5.4 5.4 0 0 0-1.75.39zm-20.43-58.45l2-1.26a22.63 22.63 0 0 1 3.88 1.12h.08l1.58-3.06a16.74 16.74 0 0 1-2.93-1.84l-5.65 3.63a.63.63 0 0 1-.64 0h-.07a18.75 18.75 0 0 1 .19 3.54l2.43.48v-.37c-.81-.07-.76-.79-.87-2.24zm5.8-3.73l-1.31 2.66s-1.17-.31-2-.5l3.31-2.16zm3.89 17.4a.61.61 0 0 1 .58 0h.09v-2.11l3.13.56a9.63 9.63 0 0 1 .56-2.67 16.62 16.62 0 0 1-2.51-2.29l-2.6 1.14a.62.62 0 0 1-.64-.07h-.08l-.2 2.43-3.91-.66a8.21 8.21 0 0 1-.13 2.76 15.58 15.58 0 0 1 2.76 2.15l2.95-1.24zm0-3.7l2.81-1.23.12.1a14.74 14.74 0 0 0-.64 2.65l-2.47-.49.18-1.03zm-4 3.52l-.23-.16c.172-.86.26-1.734.26-2.61l3.11.52v.89l-3.14 1.36zm-9.17 49.72h-1.15v.92H175v1.15h.92v.92h1.15v-.92h.93v-1.15h-.92l.01-.92zm26.51-22.63s-.57.13-.74.14a19.15 19.15 0 0 0 1.57 2 4.65 4.65 0 0 0 1.11-.58l-1.94-1.56zm-98.71-98C62.472.122 24.227 25.668 7.988 64.854-8.25 104.041.718 149.15 30.708 179.147c29.992 29.997 75.1 38.973 114.29 22.742 39.19-16.23 64.742-54.471 64.742-96.889C209.723 47.094 162.776.16 104.87.16l.02-.03zm11.29 23.17c.9.12 1.8.26 2.7.42v6l-2.7-4.14V23.3zm3.62 157.31l-1 .92v1.15h1.14v1.17h-1.14V185h-1.2v-1.14h-1.14v-1.16h1.14v-1.15l-1-.92h-3.5l-1 .92v1.15h1.15v1.17h-1.15V185h-1.16v-1.14h-1.14v-1.16h1.14v-1.14l-1-.93h-3.39l-1 .93v1.14h1.14v1.17h-1.14V185h-1.17v-1.14h-1.14v-1.16h1.14v-1.15l-1-.92H99.9l-1 .93v1.14h1.1v1.17h-1.14V185h-1.17v-1.14h-1.14v-1.16h1.14v-1.15l-1-.92h-3.47l-1 .93v1.14h1.15v1.17h-1.15V185H91v-1.14h-1.13v-1.16H91v-1.13l-1-.94H80c.4.4 3.49 3.13 5.07 4.53a82.2 82.2 0 0 1-8.15-2.46v-1.47l.64-.57 2-1.75h17.92a2.9 2.9 0 0 0 1.71 1h.32a5.79 5.79 0 0 0 1.14-.13 3.09 3.09 0 0 0 1-.33 9.2 9.2 0 0 0 .81-.52h8.23c.149.142.306.276.47.4a3.87 3.87 0 0 0 2.31.78 4 4 0 0 0 1.94-.51c.25-.163.443-.4.55-.68h14.26l2.57 2.25v1.59l-.57.23a82.9 82.9 0 0 1-7.59 2.25l4.44-4.56-9.27-.07zM121 186a82.94 82.94 0 0 1-32.36 0H121zM96.79 45.4v5.06H86.71V45.4h10.08zm-6-1.15V36a1.24 1.24 0 0 1 .41-.88 1.47 1.47 0 0 1 1-.39A1.29 1.29 0 0 1 93.5 36v8.23l-2.71.02zM94.65 36a1.48 1.48 0 0 1 .33-1 .88.88 0 0 1 .67-.34c.296.013.574.147.77.37.236.252.368.584.37.93v8.23h-2.14V36zm10.14 9.37h6.31v5.06H98.55V45.4l6.24-.03zm-6.24-1.15V36a1.23 1.23 0 0 1 1.06-1.3 1 1 0 0 1 .73.36 1.4 1.4 0 0 1 .36.94v8.23l-2.15-.01zm3.29 0V36a1.22 1.22 0 0 1 2.44 0v8.23l-2.44-.01zm3.6 0V36a1.19 1.19 0 1 1 2.37 0v8.23l-2.37-.01zm-.57 39.47h-.08a17 17 0 0 0-3.52.39l3.58-5.49 3.6 5.5a17.19 17.19 0 0 0-3.58-.37v-.03zm2.94 1.44v6.15a13 13 0 0 0-2.39-.32v-6.1a16.1 16.1 0 0 1 2.39.29v-.02zm-3.54-.28V91a13.18 13.18 0 0 0-2.71.41v-6.2a16.15 16.15 0 0 1 2.71-.33v-.03zm.57-8.36l-5.24 8c-.35.12-.7.24-1 .38v-2.09l6.29-9.64 6.26 9.56v2.23c-.33-.13-.66-.25-1-.36l-5.31-8.08zm0-8.75l6.26 9.48v3.38l-6.25-9.6-6.29 9.64v-3.22l6.28-9.68zm-6.3-8.68a1.38 1.38 0 0 1 1.32-1.21c.7.027 1.255.6 1.26 1.3v12.21l-2.58 4v-16.3zm5.74 1.52v4.52h-2v-5.91A1.44 1.44 0 0 1 103 58a3 3 0 0 1 1.33-.47v1.25a1.1 1.1 0 0 0 0 1.88l-.05-.08zM104 66.9l-1.76 2.7v-3.72A5.16 5.16 0 0 0 104 66.9zm1.4-8.16V57.5a3 3 0 0 1 1.25.46c.423.265.68.73.68 1.23v5.94h-1.93v-4.52a1.1 1.1 0 0 0 0-1.87zm1.93 7.14v3.63l-1.73-2.62a5.15 5.15 0 0 0 1.77-1.01h-.04zm1.15 5.37V59.19a1.33 1.33 0 0 1 1.28-1.3 1.35 1.35 0 0 1 1.3 1.23v16.05l-2.58-3.92zm.52 14.17c.807.219 1.596.5 2.36.84v6.41a13.3 13.3 0 0 0-2.36-1v-6.25zm2.14-41.17H109V36a1.48 1.48 0 0 1 .33-1 .88.88 0 0 1 .67-.34 1.1 1.1 0 0 1 .77.36c.236.249.368.578.37.92v8.31zm0 7.36v5.52a2.47 2.47 0 0 0-1.3-.38 2.44 2.44 0 0 0-1.83.86 2.76 2.76 0 0 0-.62-.59 4.18 4.18 0 0 0-1.91-.68v-.64h1v-1.15h-1v-1h-1.15v1h-1v1.15h1v.63a4.25 4.25 0 0 0-2 .69 2.86 2.86 0 0 0-.62.58 2.4 2.4 0 0 0-1.81-.86 2.51 2.51 0 0 0-1.32.39v-5.52h12.56zM100.41 85.5v6.25c-.804.29-1.578.66-2.31 1.1v-6.47a15.93 15.93 0 0 1 2.31-.88zm4.46 6.62a12 12 0 0 1 8.43 3.46 11.45 11.45 0 0 1 3.49 8.14c0 4.52-2.74 8.23-7 10.48 0-.24 0-.49.07-.75a14.73 14.73 0 0 1 1.68-4.21 1.67 1.67 0 0 0 1.52-.66 1.59 1.59 0 0 0 .06-1.54 1.83 1.83 0 0 0 1.24-1.37 1.55 1.55 0 0 0-1.12-1.73 1.62 1.62 0 0 0 .27-1.67 1.65 1.65 0 0 0-1.77-.95s.19-.7-.7-1.23c-.89-.53-1.38-.23-1.38-.23a1.31 1.31 0 0 0-.74-.69 2.12 2.12 0 0 0-1.07-.08 1.48 1.48 0 0 0-.82-.41 1.59 1.59 0 0 0-1 .14 1.58 1.58 0 0 0-2.38 0s-.17-.25-.83-.24a1.18 1.18 0 0 0-1 .51 1.21 1.21 0 0 0-1.05 0 1.5 1.5 0 0 0-.76.82s-.43-.38-1.39.21a1.39 1.39 0 0 0-.69 1.25 1.61 1.61 0 0 0-1.56.61 1.66 1.66 0 0 0 0 1.91 1.46 1.46 0 0 0-1.09 1.59 1.79 1.79 0 0 0 1.27 1.6 2.18 2.18 0 0 0 .17 1.51c.388.47.983.717 1.59.66.12.46.88 3.49 1 4.69-.74-.48-1.31-.88-1.31-.89a11.11 11.11 0 0 1-1.69-17.48 12 12 0 0 1 8.56-3.46v.01zm24.72-32.26v-1h-1.15v1h-1V61h1v3.35l-2.87 4.36V46.57l6.72 10.17v11.75l-2.71-4.13V61h1v-1.15l-.99.01zm-.59 5.71l3.28 5v2.9a2.6 2.6 0 0 0-3.35.52 2.57 2.57 0 0 0-2-.91c-.5.003-.99.149-1.41.42v-2.7l3.48-5.23zm3.28 9.82v26.83L129.51 98V75.53a1.41 1.41 0 0 1 1.42-1.29 1.38 1.38 0 0 1 1.37 1.15h-.02zm-6.72.14a1.39 1.39 0 0 1 1.41-1.3 1.36 1.36 0 0 1 1.37 1.29V98l-2.79 4.25V75.53h.01zm3.36 23.67l3.36 5.12v9.8a2.5 2.5 0 0 0-1.34-.4 2.69 2.69 0 0 0-2 .94 2.77 2.77 0 0 0-2-.94 2.61 2.61 0 0 0-1.31.36v-9.74l3.29-5.14zm.57 70.47V144h2.79v18l-2.68 4.77v2.92l-.11-.02zm.1 6.13v1.31h-.78a1.84 1.84 0 0 0 .21-.23 4.34 4.34 0 0 0 .59-1.08h-.02zm-.1-34.39v-25.25a1.24 1.24 0 0 1 .43-.9 1.54 1.54 0 0 1 1-.4 1.31 1.31 0 0 1 1.32 1.3v25.25h-2.75zm-2.63-26.55c.37.012.724.154 1 .4a1.2 1.2 0 0 1 .44.89v25.25h-2.79v-25.57a1.28 1.28 0 0 1 1.37-.97h-.02zm1.5 29.14v24.63l-.37-.33a10.43 10.43 0 0 1-2.33-2.78v-.06l-.08-.09V144h2.78zm-1.14 25.15c.85.78 1.69 1.46 2.14 1.9a38.07 38.07 0 0 1-.65 3.79 3.62 3.62 0 0 1-.57 1.29.83.83 0 0 1-.71.37.94.94 0 0 1-.77-.37c-.69-.75-.83-3-.81-4.06V171a8.14 8.14 0 0 1-3.15-1.81c-1.14-1.15-2.3-3.2-2.9-7.17-.21-1.37-.43-4.41-.77-7.46a32.8 32.8 0 0 0-1.49-7.76l-1.05.46a32.22 32.22 0 0 1 1.39 7.42c.34 3 .56 6 .78 7.5.62 4.12 1.86 6.44 3.22 7.8a7.79 7.79 0 0 0 2.87 1.81 8.18 8.18 0 0 0-.93 1.14 29.51 29.51 0 0 1-2.25 2.89 3.82 3.82 0 0 1-2.41 1.48 1.67 1.67 0 0 1-1.22-.61 8.09 8.09 0 0 0-5.64-2.84 5.47 5.47 0 0 0-3.71 1.49 2.9 2.9 0 0 1-1.91.85 3.42 3.42 0 0 1-2.35-1.18c-.31-.3-1-1-.92-.86a5.44 5.44 0 0 0-1.54-1.06 5.08 5.08 0 0 0-1.66-.3 5.45 5.45 0 0 0-2.1.42 13.11 13.11 0 0 0-3.57 2.36 4.21 4.21 0 0 1-2.69 1.16 3.55 3.55 0 0 1-2.76-1.51 6.14 6.14 0 0 0-1.45-1.52 2.36 2.36 0 0 0-1.28-.37c1.94-4.86 5-14.17 5.88-17.81.52-2.11 1-4.23 1.56-6.3.44-1.6 1.15-3.82 2.86-5a6.87 6.87 0 0 1 2.25-.43 3.15 3.15 0 0 1 1.1.17 21 21 0 0 1 3.24 1.86 7.74 7.74 0 0 0 3.81 1.44c2.55 0 5.19-1.52 6-1.83.23-.11.5-.26.79-.43a8.42 8.42 0 0 0 1-.48l.28-.16a3.91 3.91 0 0 1 1.59-.38 2.64 2.64 0 0 1 .93.16 2.38 2.38 0 0 1 1 1.07c1.09 1.85 1.9 5.48 2.22 7.31.43 2.48 1.07 6.45 1.9 9.55a14.84 14.84 0 0 0 1.13 2.75c.2.386.427.757.68 1.11l.12.15a11.59 11.59 0 0 0 2.52 3.11v-.04zm-1.22 7.96h-4a15.93 15.93 0 0 0 1.37-1.52c.55-.7 1-1.4 1.46-2a9.81 9.81 0 0 0 .26 1.7 4 4 0 0 0 .76 1.59c.044.08.094.157.15.23zm-9.25 0h-.83a6.13 6.13 0 0 0-.38-1c.422.302.82.636 1.19 1h.02zm-2.94-1.66a5.18 5.18 0 0 1 1.12 2.61.79.79 0 0 1-.1.44v.07a2.83 2.83 0 0 1-1.34.34 2.7 2.7 0 0 1-1.64-.56 6.36 6.36 0 0 1-1.55-1.79c-.17-.27-.29-.52-.38-.7a4.2 4.2 0 0 1 2.48-.83h.09l.8 2.24 1.08-.38-.56-1.44zm-4.55 1.66H108a4.49 4.49 0 0 0 1-.53c0 .16.12.34.24.53h.02zm-3.81 0h-2.12c0-.37.06-.79.08-1.22v-.19l.17.15a5.53 5.53 0 0 0 1.85 1.26h.02zm-4.32.36l.93-2.81.24.14v1a13.09 13.09 0 0 1-.15 1.69 1.17 1.17 0 0 1-.42.46c-.24.19-.52.34-.72.47a2.74 2.74 0 0 1-.59.17 4.81 4.81 0 0 1-.91.11h-.18a2.18 2.18 0 0 1-1.24-.93 1.4 1.4 0 0 1-.2-.82 4.62 4.62 0 0 1 .93-2.62 1.23 1.23 0 0 1 .16-.17 3.82 3.82 0 0 1 .68-.17h.49c.198.005.396.028.59.07l.32.1-1 3 1.07.31zm-4.43-.36h-2.25a7.8 7.8 0 0 0 .88-.64c.542-.465 1.11-.9 1.7-1.3a5.47 5.47 0 0 0-.34 1.81s-.01.09-.01.13h.02zm-16-6.62a36.14 36.14 0 0 0 6.18-8.42c2.23-4.05 3.63-9.48 4.3-11.69a8.88 8.88 0 0 1 2.74-4.6 15.57 15.57 0 0 0-1.18 3.15c-.59 2.11-1 4.23-1.56 6.33a180.36 180.36 0 0 1-6.31 18.82c-.301.472-.578.96-.83 1.46a2 2 0 0 1-1.25 1 1 1 0 0 1-.25 0c-.38 0-.83-.31-1.23-1.37a14.46 14.46 0 0 1-.64-4.68h.03zm.42 6.62h-1v-2c.047.167.1.333.16.5a4 4 0 0 0 .82 1.5h.02zm3-33.07v20.4a35.33 35.33 0 0 1-2.79 3.77V144l2.79.04zm-2.79-2.63v-25.25a1.22 1.22 0 0 1 .42-.9 1.56 1.56 0 0 1 1-.4 1.34 1.34 0 0 1 1.35 1.25v25.3h-2.77zm2.79-39.18L81.29 98V75.53a1.32 1.32 0 0 1 1.35-1.3c.37.009.726.15 1 .4.258.225.41.548.42.89l.06 26.71zm11.13 10.86a2.21 2.21 0 0 1 2.2 2.13l-.65.21.16.54a1 1 0 0 1 0 .3c0 .36-.21.48-.52.51a.61.61 0 0 1-.6-.47l-.06-.18v-.24h.92v-1.15h-.92v-.92h-1.15v.92h-.92v1.15h.92v.21l-1.27.43a2.18 2.18 0 0 1-.37-1.21 2.22 2.22 0 0 1 2.23-2.23h.03zm-.11-.58v-.57c.19.21.39.41.6.61a2.76 2.76 0 0 0-.49 0l-.11-.04zm3 3.76v-.07l.57-.19 1.39 3.91-.49.18a1.66 1.66 0 0 0-1.39-.74 1.8 1.8 0 0 0-1.81 1.75l-.62.21-1.35-4 .59-.19a1.75 1.75 0 0 0 1.44.75 1.7 1.7 0 0 0 1.14-.43 1.62 1.62 0 0 0 .51-1.18h.02zm-.33-2.05l.88.59-.69.19a2.81 2.81 0 0 0-.21-.78h.02zm12.19-5.06h-.6a3.79 3.79 0 0 1-.44 1c-.28.45-.29.29-.81 1a5 5 0 0 0-1.72-.91v-1h-.49v1h-.29v-.24h-.38v.4a.35.35 0 0 1-.69 0v-.44h-.37v.28h-.3v-1.05h-.55v1a4.47 4.47 0 0 0-1.54.78 2.43 2.43 0 0 1-1.57-1.92h-.34a20 20 0 0 1-.89-3.37c.36-.32 1.31-1.21 1.27-1.65a1.51 1.51 0 0 0 1 .4 1.67 1.67 0 0 0 1.32-.69 1.69 1.69 0 0 0 2.28-.4c.27.27.57.7 1.08.7a3.77 3.77 0 0 0 1.2-.29c.29.445.79.706 1.32.69.93 0 1-.4 1-.4s1.15 1.19 1.6 1.63a21.67 21.67 0 0 1-1.09 3.48zm1.61 7v.84a66.795 66.795 0 0 0-1.35-1.71c.47-.24.91-.51 1.35-.79a2.8 2.8 0 0 0-.12.82c-.004.27.03.54.1.8l.02.04zm-.59 2a10.34 10.34 0 0 1-1.32 1.19 3.58 3.58 0 0 0-1.59 2.49 1.75 1.75 0 0 0 0 .34 17 17 0 0 0 .83 2.24c.69 1.64 1.7 3.91 2.67 5.86.48 1 1 1.86 1.38 2.56a4.57 4.57 0 0 0 1.19 1.48 3.58 3.58 0 0 0 1.4.82c1.49.45 2.66.76 3.27 2.06l1-.48c-.87-1.84-2.58-2.25-4-2.68l-.15-.06v-.28a28.42 28.42 0 0 1 .49-4.09l-1.13-.2a34 34 0 0 0-.49 3.71 4.31 4.31 0 0 1-.47-.74 14.35 14.35 0 0 1-1.12-5c-.16-1.84-.18-3.59-.37-4.73l-1.13.19c.2 1.14.2 3.38.46 5.61-.26-.55-.52-1.11-.77-1.66-.53-1.17-1-2.3-1.37-3.17a16.65 16.65 0 0 1-.6-1.61.81.81 0 0 1 0-.14c0-.43.47-1 1.18-1.61.43-.38.91-.71 1.28-1.12 4.36 5.94 8.74 13.46 9.58 17.07.049.274.072.552.07.83a4.83 4.83 0 0 1-2 3.75 8.4 8.4 0 0 1-1 .68v-.44a4.06 4.06 0 0 0-.72-2.47 4.16 4.16 0 0 0-.92-.84 5.24 5.24 0 0 0-2.62-1.07h-.42c-.06 0-.3-.08-.61-.42-1.09-1.19-2.46-4.69-3.56-8.23-1-3.25-1.86-6.59-2.29-8.4a10 10 0 0 0 1.17-.59 2.45 2.45 0 0 0 1.1-1.45 5.31 5.31 0 0 0 .17-1.08c.473.487.937 1.03 1.39 1.63l.02.05zm3.26-5a2.21 2.21 0 1 1-2.21 2.21 2.21 2.21 0 0 1 2.19-2.26l.02.05zm-.19-.57c.12-.12.25-.23.37-.36v.35h-.37v.01zM117.55 91v9.68a12.62 12.62 0 0 0-2-4.21V89a18.33 18.33 0 0 1 2 2zm-1.89-3.45l1.89-2.94v4.67a19.33 19.33 0 0 0-1.89-1.7v-.03zm1.89 28.72v9.45c-.63-1-1.3-2.1-2-3.15v-4.81a2.8 2.8 0 0 0 0-4.92v-2a12.11 12.11 0 0 0 2-4.11v7.61a2.74 2.74 0 0 0 0 2v-.07zm-3.11 1.8v2.82c-.56-.82-1.13-1.62-1.7-2.4v-.87c.451.296.98.453 1.52.45h.18zm5.85 23.31a5.88 5.88 0 0 0 2.21-4.38 6 6 0 0 0-.09-1 19.11 19.11 0 0 0-1.09-3.07v-15a2.8 2.8 0 0 0 1.63-2.39v25.94l-2.66-.1zm2.66 2.63v13.77c-.39-2-.72-4-1-5.45a37.61 37.61 0 0 0-1.26-5.17 13.46 13.46 0 0 0-1.09-2.53 6.86 6.86 0 0 0-.43-.64l3.78.02zm-4.25-53.42v-6l4.25 6.47v8a23.8 23.8 0 0 0-4.26-8.43l.01-.04zm4.25 16.75v7.79a2.79 2.79 0 0 0-1.63-2.39v-15a29.38 29.38 0 0 1 1.62 9.63l.01-.03zM120.17 95v17.48a2.79 2.79 0 0 0-1.47.42V92.5a21.34 21.34 0 0 1 1.47 2.5zm-1.47-12.53v-4l4.24 6.53v4l-4.24-6.53zm0-6.06v-7.05a2.06 2.06 0 0 1 2.08-2 2.14 2.14 0 0 1 2.17 2v13.55l-4.25-6.5zm2.08-10.27a3.25 3.25 0 0 0-2.7 1.44 3.46 3.46 0 0 0-2.81-1.44 3.71 3.71 0 0 0-2.36.87L118.2 59l4.74 7.23V67a3.4 3.4 0 0 0-2.17-.82l.01-.04zm-.61 46.93a2.21 2.21 0 1 1-2.21 2.21 2.21 2.21 0 0 1 2.2-2.17l.01-.04zm0 5v12.3c-.45-.87-.94-1.78-1.47-2.72v-10c.44.275.95.42 1.47.42zm-5.87 23.7l-4 2.43a1.94 1.94 0 0 1-.33-.17l4.11-2.65-.62-1-4.26 2.75a1.87 1.87 0 0 1-.12-.58l4.22-2.53-.59-1-3.17 1.9a2.9 2.9 0 0 1 1-1c.31-.18.35-.19 3.58-2.26h.12a7.07 7.07 0 0 1 1.88.81 3.3 3.3 0 0 1 1.14 2.49 2.5 2.5 0 0 1-.1.75l-2.55 1.56a11 11 0 0 0-1.24.65 5.94 5.94 0 0 1-1 .32l2.54-1.53-.61-.94zm-9.93 1h-.34a2.92 2.92 0 0 1-2.65-2.84 3 3 0 0 1 0-.42 3 3 0 0 1 3.06-2.61c.221.002.442.022.66.06l.35.06.21-.3a2.52 2.52 0 0 1 2.17-1.17 4 4 0 0 1 1.81.47 2.67 2.67 0 0 1 1.38 2.24l-.41.26v-.06a2.4 2.4 0 0 0-1-1.91 2.44 2.44 0 0 0-1.52-.54 2.67 2.67 0 0 0-2.46 1.64 2.3 2.3 0 0 0-1.19-.32 2.62 2.62 0 0 0-2.59 2.16 3 3 0 0 0 0 .43 2.36 2.36 0 0 0 .74 1.77 2.48 2.48 0 0 0 1.69.64c.17.016.34.016.51 0a2.69 2.69 0 0 0 2.62 2.54 2.37 2.37 0 0 0 1-.2l.28-.15c.141.15.295.287.46.41a3.4 3.4 0 0 1-1 .33 4.467 4.467 0 0 1-.81.08 2.91 2.91 0 0 1-2.83-2.15l-.14-.42zm0 2.33l-.51-.31c-.54-.33-1.08-.69-1.62-1h1.28a4.9 4.9 0 0 0 .87 1.4l-.02-.09zm-14.92-32a2.21 2.21 0 1 1-2.21 2.21 2.22 2.22 0 0 1 2.21-2.21zm-.09-.58V95.38a21.6 21.6 0 0 1 1.6-2.76V113a2.74 2.74 0 0 0-1.51-.45l-.09-.03zm1.6 5.14v11.42l-.88 1.64c-.26.49-.5 1-.72 1.4v-14h.09a2.77 2.77 0 0 0 1.55-.47l-.04.01zm-2.27 19.13v-.1a24.71 24.71 0 0 1 2.38-5.45c1.2-2.27 2.72-4.92 4.29-7.42l1.33 3.91 2.63-.92-.12-.51a.82.82 0 0 1 0-.23.62.62 0 0 1 .64-.62c.24 0 .42.08.56.46l.18.55c-.67 1.91-1.75 4.55-2.3 6a2.27 2.27 0 0 0-.53-.06 4.13 4.13 0 0 0-2.86 1.56 37.59 37.59 0 0 1 1.29-5.88l-1.07-.41a46 46 0 0 0-1.83 11.09 5.29 5.29 0 0 0 .2 1.7 2.2 2.2 0 0 0 2 1.64 5.25 5.25 0 0 0 3-1.4 5.94 5.94 0 0 1-3.56 2.85 1.945 1.945 0 0 1-.61.09 6.001 6.001 0 0 1-3.78-2.06 6.49 6.49 0 0 1-2-4.07c.017-.247.07-.49.16-.72zm8.84-15.68a.64.64 0 0 1 .66-.6c.24 0 .41.07.54.47a1 1 0 0 1 0 .23.64.64 0 0 1-.65.62c-.24 0-.4-.07-.55-.47a.75.75 0 0 1 0-.25zm.55 1.86a1.79 1.79 0 0 0 1.8-1.77l.55-.2 1.36 3.82-.3.1-.29.09a1.7 1.7 0 0 0-1.4-.74A1.78 1.78 0 0 0 98 126l-.61.22-1.29-3.82.59-.21c.294.49.819.796 1.39.81v-.03zm6.9-5.76h.54a3.57 3.57 0 0 0 3-1.9 12 12 0 0 1-.19 1.81 1.27 1.27 0 0 1-.62.8c-.34.22-.85.43-1.47.73l-.41.2.1.45c.11.49.27 1.16.47 1.93a2.21 2.21 0 0 1-1.41.53 2.49 2.49 0 0 1-1.72-.45c.23-.76.42-1.43.55-1.91l.14-.5-.48-.19a3.8 3.8 0 0 1-2.27-2.16c0-.24-.1-.59-.18-.95a6.47 6.47 0 0 1 0-.78 4.41 4.41 0 0 0 3.97 2.39h-.02zm-1.44-4.69h2.7a1.38 1.38 0 0 1-2.7 0zm4.46 18.32c-.47-2.15-1.05-5.07-1.53-8.22l.32-.17c.46 1.8 1.07 4 1.74 6.12a26.69 26.69 0 0 1 .9 6.15 6.25 6.25 0 0 0-.62-.17h.06s-.42-1.44-.87-3.71zm-1.47-1.38a7 7 0 0 0-.49-.77 1.67 1.67 0 0 0-1.24-.81.86.86 0 0 0-.26 0l-.21.06c.14-1 .43-3.32.49-5h.46c.4 2.38.82 4.63 1.21 6.51l.04.01zm-3.91-5.94l.33-1a3.1 3.1 0 0 0 .73.31c0 .92-.13 2.06-.24 3.07l-.82-2.38zm.48 4.81l-.48.14-.83-2.42.17-.05.33-.11.81 2.44zm-.48-8.73c-.16.57-.37 1.31-.62 2.12l-.52-1.47-.85-2.4a5.16 5.16 0 0 0 1.94 1.75h.05zm-1 9.58a8.15 8.15 0 0 0-.88 1.37 5.49 5.49 0 0 1-1 1.48c.43-1.11 1-2.57 1.51-3.91l.37 1.06zm-3.92 4.39a25.55 25.55 0 0 0-1.87 2.23c-.47.62-.92 1.24-1.29 1.78 0-.41.07-.85.12-1.3.91-1.58 2.12-2.66 2.97-2.71h.07zm2.61 5.63l.07-.07v.28a4.6 4.6 0 0 0 0 .58 3.9 3.9 0 0 0 1.12 2.73h-2.82a6.67 6.67 0 0 0 1.57-3.52h.06zm.49-1.8c-.36.25-.69.48-.95.68l-.33.27c-.06.08-.11.09-.18.19-1.85 1.81-3.14 2.46-3.75 2.43-.45 0-.69-.21-1-.9a2.26 2.26 0 0 1-.1-.52c.46-.59 1.26-1.8 2.22-3.08a11.48 11.48 0 0 1 3.16-3.22 4.42 4.42 0 0 0 1.85-2.18c.43-.82.87-1.45 1.21-1.52l1.87-.54c.137.11.255.242.35.39l-1.26.54.45 1.06 1.39-.59c.07.15.14.3.19.45l-1.37.56.43 1.06 1.32-.54c0 .16.09.31.13.47l-1.27.47.4 1.07 1.07-.4v.2a1.26 1.26 0 0 1-.06.45c-.62.21-2.69 1.21-3.91 1.86-.45.34-1.23.85-1.93 1.34h.07zm9.78-3.34c.17.38.34.73.51 1.07a8.66 8.66 0 0 0 1.16 1.77c.132.148.276.285.43.41l-.5.32a3.72 3.72 0 0 0-1.59-2.39v-.43s-.06-.46-.07-.75h.06zm-1.28 5.48a4.23 4.23 0 0 0-.45.52l-.88-.07-.41.92.66.37a4 4 0 0 0-.24 1.28 3 3 0 0 0 .16 1l-.14.08a1.28 1.28 0 0 1-.5.1 1.47 1.47 0 0 1-1-.46 1.44 1.44 0 0 1-.45-1 .94.94 0 0 1 .25-.64l-.79-.83a1.8 1.8 0 0 1-1.11.4A1.2 1.2 0 0 1 103 140a1.93 1.93 0 0 1 0-.26 1.49 1.49 0 0 1 1.45-1.18c.516 0 .977.324 1.15.81l1.07-.4a1.26 1.26 0 0 1 .4-1.32 1.58 1.58 0 0 1 1-.41 1.26 1.26 0 0 1 .81.28c.335.224.54.597.55 1a2.46 2.46 0 0 1-.3 1l.17.02zM94 112.81a2.79 2.79 0 0 0-.83 4.35l.83 2.45v4.29c-.64 1-1.26 2.07-1.85 3.1v-10.88a2.84 2.84 0 0 0 .14-.86 2.74 2.74 0 0 0-.14-.85v-8.1a12.24 12.24 0 0 0 1.85 4.15v2.35zm-1.85-23.44V84.6l1.95 3a19.06 19.06 0 0 0-1.99 1.77h.04zm1.85-.21v7.61a12.6 12.6 0 0 0-1.85 4.24v-9.93A18.87 18.87 0 0 1 94 89.16zm-2.37-21.55a3.25 3.25 0 0 0-2.7-1.44 3.4 3.4 0 0 0-2.17.79v-.64L91.53 59l5.26 8v.08a3.73 3.73 0 0 0-2.41-.9 3.46 3.46 0 0 0-2.8 1.43h.05zm-4.87 1.73a2.15 2.15 0 0 1 2.17-2 2 2 0 0 1 2.08 2v7.1l-4.25 6.47V69.34zm4.24 9.2v4L86.71 89v-4L91 78.54zm0 6.06v6.09a24.07 24.07 0 0 0-4.25 8.46v-8.08L91 84.6zm-4.23 23a29.14 29.14 0 0 1 1.48-9.39v14.59a2.79 2.79 0 0 0-1.5 2v-7.21l.02.01zm1.48 10.24v16.76a9.1 9.1 0 0 0-.63 1.93 3.73 3.73 0 0 0-.14 1 6.77 6.77 0 0 0 1.49 3.87h-2.26v-25.56a2.79 2.79 0 0 0 1.5 1.97l.04.03zM91.84 144a6.19 6.19 0 0 0 1.59.65l-.21.17a10.08 10.08 0 0 0-3.15 5.19 73.83 73.83 0 0 1-3.35 9.74V144h5.12zm-6.52 31.51a4.29 4.29 0 0 1 .48-.84.54.54 0 0 1 .47-.22c.274-.026.549.04.78.19a5.08 5.08 0 0 1 1.16 1.24 5.34 5.34 0 0 0 1.24 1.18h-5.28a4.34 4.34 0 0 0 1.15-1.51v-.04zm37.62-111.39l-4.25-6.47v-2h1v-1.1h-1v-1h-1.15v1h-1v1.15h1v2.18L112.86 65V51.61h10.08v12.51zM113.56 68a2.56 2.56 0 0 1 1.7-.66 2.25 2.25 0 0 1 2.28 2.22v6.91l-4.69 7.11V69.43a2.12 2.12 0 0 1 .71-1.43zm4 10.54v4l-2.81 4.38a18 18 0 0 0-1.88-1.15v-.1l4.69-7.13zm-3.11 9.55v7a13.31 13.31 0 0 0-2-1.7v-6.56c.688.373 1.35.794 1.98 1.26h.02zM97 93.62a13 13 0 0 0-1.85 1.69v-7.1A17 17 0 0 1 97 87v6.62zm-2-6.74l-2.87-4.37v-4l4.74 7.19A18.19 18.19 0 0 0 95 86.88zm-2.87-10.43v-6.91a2.26 2.26 0 0 1 2.28-2.22 2.59 2.59 0 0 1 1.71.66c.375.34.62.8.69 1.3v14.29l-4.68-7.12zm0-18.68V55.7h1v-1.15h-1v-1H91v1h-1v1.15h1v2.07l-4.25 6.47V51.61H96.8v13.3l-4.67-7.14zm-3.07-13.52h-2.35V33.71L86 32.44v-4.16h1v-1.15h-1v-1h-1.18v1h-1v1.15h1v4.2l-.73 1.22v10.92l-6.73 10.16V27.26a81.89 81.89 0 0 1 11.69-3.18l.01 20.17zm-5 2.45v21.9l-2.8-4.25V61h1v-1.15h-1v-1h-1.12v1h-1V61h1v3.35l-2.78 4.24V56.86l6.7-10.16zm-3.34 18.87l3.37 5.12v2.82a2.69 2.69 0 0 0-1.44-.43 2.54 2.54 0 0 0-1.93.89 2.54 2.54 0 0 0-1.94-.89 2.6 2.6 0 0 0-1.41.42v-2.81l3.35-5.12zm-1.94 8.67a1.35 1.35 0 0 1 1.37 1.3V98l-2.78 4.24v-26.7a1.42 1.42 0 0 1 1.41-1.3zm1.94 25l3.37 5.12v9.78a2.56 2.56 0 0 0-1.35-.39 2.69 2.69 0 0 0-2 .92 2.63 2.63 0 0 0-2-.92c-.489 0-.967.14-1.38.4v-9.8l3.36-5.11zm-2 15.66a1.4 1.4 0 0 1 1.4 1.3v25.25h-2.76v-25.31a1.38 1.38 0 0 1 1.38-1.28l-.02.04zm1.42 29.1v25.38l-.09.09v-2.66l-2.69-4.78V144h2.78zm-1.84 23.3v10.29l-1.37 1.2v-13.92l1.37 2.43zm53.07 10.29V167.3l1.37-2.44v13.92l-1.37-1.19zm.93-122.93l-6.72-10.17V33.7l-.72-1.24v-4.18h1v-1.15h-1v-1h-1.16v1h-1v1.15h1v4.18l-.7 1.24v10.55h-2.33V24.07a82.15 82.15 0 0 1 11.69 3.16l-.06 27.43zm-9.35-9.26v5.06h-10.09V45.4h10.09zm-10.08-1.15V36a1.23 1.23 0 0 1 1.06-1.3 1 1 0 0 1 .73.36c.226.26.347.595.34.94v8.23l-2.13.02zm3.29 0V36a1.3 1.3 0 0 1 1.3-1.29c.372 0 .73.143 1 .4.26.232.412.562.42.91v8.21l-2.72.02zm2.7-12.41V34a2.62 2.62 0 0 0-1.4-.43 2.43 2.43 0 0 0-1.85.87 2.17 2.17 0 0 0-1.68-.87 2.12 2.12 0 0 0-1.37.55v-2.7l3-4.61 3.3 5.03zm-6.29-11.22a1.22 1.22 0 0 1 2.44.08v4.89l-2.45 3.73V20.7a.58.58 0 0 0 0-.08h.01zM109 2.88c2 .08 4 .217 6 .41v11l-3-7.72-3 7.81V2.88zm0 15.38v-.73l3-7.81 3 7.72v1.19a2.29 2.29 0 0 0-1.22-.36 2.33 2.33 0 0 0-1.8.86 2.33 2.33 0 0 0-1.8-.86 2.3 2.3 0 0 0-1.23.36l.05-.37zm0 2.45a1.23 1.23 0 1 1 2.45-.08v8.7L109 25.59v-4.88zm2.44 10.71v2.74a2.22 2.22 0 0 0-1.45-.58 2 2 0 0 0-1.6.82 2.24 2.24 0 0 0-2.92-.47V31.3l2.94-4.49 3.03 4.61zm-6-2.21v-11a1.19 1.19 0 1 1 2.37-.08v7.41l-2.37 3.67zm-3.6-26.37h5.94V11l-3-7.7-3 7.61.06-8.07zm0 11.23l3-7.61 3 7.7v2a2.26 2.26 0 0 0-1.18-.34 2.29 2.29 0 0 0-1.77.85 2.3 2.3 0 0 0-3-.49l-.05-2.11zm0 4.06a1.23 1.23 0 1 1 2.45.12v11.07l-2.45-3.73v-7.46zm2.45 13.29v2.52a2.3 2.3 0 0 0-1.22-.36 2.33 2.33 0 0 0-1.79.85 2.17 2.17 0 0 0-1.66-.85 2.08 2.08 0 0 0-1.37.55v-2.71l3-4.61 3.04 4.61zm-6-2.09v-8.65a1.23 1.23 0 1 1 2.45 0v4.89l-2.45 3.76zm-3.59-26c2-.2 4-.33 6-.42v11.33l-3-7.71-3 7.82V3.33zm0 14.22l3-7.82 3 7.71v1.21a2.29 2.29 0 0 0-1.23-.36 2.34 2.34 0 0 0-1.8.85 2.32 2.32 0 0 0-1.8-.85 2.28 2.28 0 0 0-1.22.36l.05-1.1zm0 3.19a1.22 1.22 0 1 1 2.44 0v8.62l-2.44-3.73v-4.89zm2.44 10.71v2.75a2.22 2.22 0 0 0-1.45-.59 2.05 2.05 0 0 0-1.61.84 2.42 2.42 0 0 0-1.83-.84 2.61 2.61 0 0 0-1.4.42v-2.2l3.27-5 3.02 4.62zm-6.28-1.69v-6c.89-.15 1.79-.3 2.69-.42v2.25l-2.69 4.17zm-53.58 95h-2.89a2.79 2.79 0 0 0 0-5h2.87l.02 5zm-5.3-5a2.79 2.79 0 0 0 0 5h-2.69v-5h2.69zM29.29 118v-5.35a1.28 1.28 0 0 1 .49-1 1.9 1.9 0 0 1 1.23-.44 1.52 1.52 0 0 1 1.61 1.41V118h-3.33zm1.64 4.27a2.21 2.21 0 1 1 2.21 2.21 2.22 2.22 0 0 1-2.21-2.21zm6.3-4.27h-3.45v-5.35a1.55 1.55 0 0 1 1.66-1.41 2 2 0 0 1 1.27.45c.317.235.506.605.51 1l.01 5.31zm0-7.36a3.22 3.22 0 0 0-1.79-.55 2.91 2.91 0 0 0-2.23 1 2.84 2.84 0 0 0-2.19-1 3.09 3.09 0 0 0-1.74.53v-2.79l3.92-6 4 6.11.03 2.7zm0-4.74l-3.45-5.28v-2.2h1v-1.15h-1v-1h-1.15v1h-1v1.15h1v2.2l-3.34 5.12v-8.19l7.94-11.36v19.71zm0-21.71l-7.94 11.36V81.88l-.87-1.41-.89 1.41v44.65h9.69v25.79c-19.822-28.382-19.822-66.118 0-94.5l.01 26.37zm0-32.29v3.92c-21.358 29.345-21.358 69.115 0 98.46v27.39a110.56 110.56 0 0 1-4.66-4.36C4.796 149.528-4.604 108.29 8.386 71.216 21.376 34.143 54.46 7.79 93.5 3.42v18.75c-.9.12-1.8.27-2.69.42V8.89l-.88-1.11-.86 1.11v14A83.15 83.15 0 0 0 77.36 26v-3l-1.28-2.19L74.75 23v4c-2.587 1-5.107 2.12-7.56 3.36V27.3l-1.75 2.85v1.14a83.73 83.73 0 0 0-16.15 11.25v-3.05l-1.75 2.71v1.95a83.71 83.71 0 0 0-7.68 8.26v-.51l-1.29-2.2-1.34 2.2zm26.39 132v-1.17h1.15v-1.15h1.17v1.15h1.14v1.17h-1.14v1.1h-1.17v-1.14l-1.15.04zm-23.77-3.24v-1.75h32.8l2 1.75h-34.8zm18.21 3.24v-1.17h1.15v-1.15h1.17v1.15h1.14v1.17h-1.13v1.1h-1.17v-1.14l-1.16.04zm-5.55 0v-1.17h1.15v-1.15h1.16v1.15H56v1.17h-1.17v1.1h-1.16v-1.14l-1.16.04zm-5.55 0v-1.17h1.15v-1.15h1.17v1.15h1.14v1.17h-1.14v1.1h-1.17v-1.14l-1.15.04zM52 59.95l2.11 3.22v11.41h-1.54V65.1l.54-.86L52 62.46l-1.11 1.78.54.86v9.49h-2.14V64L52 59.95zm-2.69 2V44.09c.7-.64 1.41-1.27 2.13-1.88v16.53l-2.13 3.21zm16.13 2v10.63h-2.15V65.1l.54-.86-1.11-1.78-1.12 1.78.54.86v9.48h-1.53V63.17l2.12-3.22 2.71 4zm-2.12-5.2v-25c.7-.41 1.41-.81 2.12-1.2v29.3l-2.12-3.1zm-2 50.38v2.23a23.41 23.41 0 0 0-3-.31V111l3.59-5.47 3.51 5.47v1.59a17.79 17.79 0 0 0-3-1v-2.46h-1.1zm-3-.24V93.51a1.74 1.74 0 0 1 1.36-.61 1.56 1.56 0 0 1 1.66 1.41v10l-3.02 4.58zm4.16-4.6v-10a1.42 1.42 0 0 1 1.44-1.41 1.66 1.66 0 0 1 1.1.43c.292.25.46.616.46 1v14.57l-3-4.59zm1.45-12.52a2.61 2.61 0 0 0-2 1 2.92 2.92 0 0 0-2.21-1 3 3 0 0 0-1.36.33v-.69l3.48-9.62L65.42 92v.23a2.82 2.82 0 0 0-1.58-.48l.09.02zM61.71 78.4L58.23 88V75.73h7.18v12.92l-3.7-10.25zm.43-31L60 44.15l-2.1 3.21V37.2a79.673 79.673 0 0 1 4.21-2.73l.03 12.93zM60 46.24l2.11 3.21v9.29l-1.54 2.34v-8h1v-1.17h-1v-2.22h-1.11v2.22h-1v1.15h1v8l-1.53-2.33v-9.28L60 46.24zm-.57 16.92v11.42h-1.5V65.1l.54-.86-1.11-1.78-1.11 1.78.54.86v9.48h-1.54V63.17L57.36 60l2.07 3.16zm-2.65-15.8l-2.11-3.21-2.11 3.21v-6.11a84.135 84.135 0 0 1 4.22-3.24v9.35zm-2.11-1.12l2.11 3.21v9.29l-1.53 2.33v-8h1.11v-1.16h-1.11v-2.22H54.1v2.22h-1v1.15h1v8l-1.53-2.34v-9.27l2.1-3.21zm1.81 29.49v12.63l-3.59-9.92-3.6 10V75.73h7.19zm-3.59 6.1l3.59 9.91v.34a3 3 0 0 0-1.36-.33 2.93 2.93 0 0 0-2.23 1 2.76 2.76 0 0 0-2.12-1 2.68 2.68 0 0 0-1.49.46v-.43l3.61-9.95zm3.59 11.69v15.36l-3-4.6v-10a1.55 1.55 0 0 1 1.66-1.41 1.75 1.75 0 0 1 1.34.64v.01zm-5.7-.61a1.53 1.53 0 0 1 1.54 1.41v10l-3 4.6v-14.7a1.49 1.49 0 0 1 1.46-1.32v.01zm2.11 12.59l3.59 5.5a22.1 22.1 0 0 0-3 .3v-2.25h-1.17v2.48a17.58 17.58 0 0 0-3 1V111l3.58-5.5zm4.42 6.67c8 0 12.27 3.66 14.66 7.47a19.56 19.56 0 0 1 2.38 5.78 3.75 3.75 0 0 0-1.73-.5h-.15a3.77 3.77 0 0 0-2.31.9 16.46 16.46 0 0 0-3.84-7.89c-2.25-2.6-5.21-4.5-8.31-4.72h-.66a6.8 6.8 0 0 0-1.33.12 13.61 13.61 0 0 0-7.7 4.62 16.33 16.33 0 0 0-3.94 7.83 3.67 3.67 0 0 0-2.42-.84 3.72 3.72 0 0 0-1.64.35 19.59 19.59 0 0 1 2.37-5.63c2.39-3.83 6.67-7.48 14.62-7.5v.01zm15.89 24.37v-10.37c.329.09.635.246.9.46.35.275.577.678.63 1.12v34.33l-1.52 2.75v-28.29h-.01zm-3-23.49v2.61a15.92 15.92 0 0 0-2.87-2.14l3.44-5.32 4 6v8.47a20.15 20.15 0 0 0-1.82-3.67 17.16 17.16 0 0 0-1.61-2.19V113l-1.14.05zm1.13-6.05V94.31A1.56 1.56 0 0 1 73 92.9a2 2 0 0 1 1.25.44c.307.241.488.61.49 1v17.84L71.33 107zm3.39-14.7a3.12 3.12 0 0 0-1.73-.52 2.92 2.92 0 0 0-2.22 1 2.7 2.7 0 0 0-3.53-.59L71 81.87l3.72 10.43zm-3.24-12.37V29.59c1.07-.47 2.16-.92 3.25-1.35v60.68l-3.25-8.99zm-1.15.32L67.17 89V31.66c1-.54 2.1-1.06 3.16-1.55v50.14zM68.68 92.9a1.49 1.49 0 0 1 1.51 1.41V107l-3 4.66V94.28a1.51 1.51 0 0 1 1.49-1.38zm-7.52 79.82V174l-.14.23v-5.83c.07-1 .12-2.2.17-3.36l.17.17.17.21a1 1 0 0 1 .23.6 17.55 17.55 0 0 0-.57 3.37c-.07.98-.03 2.3-.03 3.33zm-4-.4l-.5-.14-.37-.11L56 169l3.66.62c0 .17 0 .32-.06.43v.2l-2.67-.47.23 2.54zM53 171.11a35.87 35.87 0 0 1-3.88-1.3 3.62 3.62 0 0 0-1.3-.38c0-.17-.09-.33-.12-.48 1.9.46 6 1.49 7.33 1.81l.08.94c-.46-.12-1.24-.33-2.11-.59zm.58 1.36v4.64h-2v-5.21l2 .57zm-3.12-.95v5.58h-2v-6.33l.16.07c.5.23 1.14.46 1.83.69l.01-.01zm-4-6a4.38 4.38 0 0 0-1.07-.28V127.9a1.59 1.59 0 0 1 .69-1.25 2.91 2.91 0 0 1 1.28-.53v39.8l-.9-.4zm.91 7V175l-.37-1.11.37-1.37zM45.9 174l.63 2.37a3.93 3.93 0 0 1-1.63-1 2.88 2.88 0 0 1-.73-2.12v-.11c.06-.84.19-1.672.39-2.49.18-.83.36-1.49.36-1.49a.55.55 0 0 0 0-.35s-.09-.25-.18-.61a4.84 4.84 0 0 1-.18-1.13.77.77 0 0 1 0-.33c.24-.36.25-.36.51-.38.31.026.615.104.9.23l.65.26a3.93 3.93 0 0 0-.2 1.27 6 6 0 0 0 .33 1.85 1.77 1.77 0 0 0-.15.39c-.16.6-.75 3.39-.75 3.4a.55.55 0 0 0 .05.24zm-2.14-5a22.27 22.27 0 0 0-.74 4.09v.14a4 4 0 0 0 1.07 2.93c.347.352.74.655 1.17.9h-2.57v-51a1.79 1.79 0 0 1 1.52 1.74v37.62a1.89 1.89 0 0 0-.6.67 1.76 1.76 0 0 0-.21.92 7.09 7.09 0 0 0 .37 2.04l-.01-.05zm1.82-43.48a15.45 15.45 0 0 1 3.6-6.89 15.12 15.12 0 0 1 3-2.62 9 9 0 0 0-.91 2.16 29 29 0 0 0-.82 7.51 4.26 4.26 0 0 0-2.54-.83 4.34 4.34 0 0 0-2.32.72l-.01-.05zm25.81 12.11l-1 .81-1.05-.81h2.05zm-1.07-1.15v-8.58c.02-.498.262-.96.66-1.26a2.56 2.56 0 0 1 1.07-.51v10.41l-1.73-.06zm-.46 2.33l-1.8 1.39-1.77-1.36 1.53-1.21h.51l1.53 1.18zm-2.66 21.83v-8.86c.37 0 .75-.1 1.09-.15.306-.04.605-.12.89-.24v23.44c-.66-.13-1.33-.27-1.88-.43h-.09v-6.6a18.84 18.84 0 0 0 1.07-4.19 4.42 4.42 0 0 0-1.08-2.97zm1.47-10.29a10.76 10.76 0 0 1-1.85.3l-1 .09-.64-1.66c0-.12.09-.41.57-.71a11.38 11.38 0 0 1 2.36-1 1 1 0 0 1 .27 0 .65.65 0 0 1 .38.1l-.12.07c-.39.2-.76.33-1.09.46a2.15 2.15 0 0 0-.47.24.81.81 0 0 0-.38.67.78.78 0 0 0 0 .2.73.73 0 0 0 .36.45.87.87 0 0 0 .43.1 4.84 4.84 0 0 0 1.64-.53 10.51 10.51 0 0 1 2.3-.85v.06a.68.68 0 0 1-.23.4 10.34 10.34 0 0 1-1.34.88c-.52.38-1.07.67-1.19.73zm-6.4 19.08a8 8 0 0 1 .44-2.52l1 .25-1.24 6.61h-.22v-1c.06-1.1.02-2.44.02-3.34zM53 140.5l.46-.22c.18-.08.39-.17.59-.24.112.248.239.488.38.72a3.21 3.21 0 0 0 1.92 1.59c.385.08.777.12 1.17.12a9.15 9.15 0 0 0 1.74-.19c.17.19.43.49.72.87a6.82 6.82 0 0 1 .93 3.63l-2.08.88-.08-.08c-.82-.82-1.74-2-3.7-4.4l-.89.73 1.61 2-3.52 2.59c-.16-.4-.28-.69-.33-.81a9.71 9.71 0 0 1-.41-1.33 10.13 10.13 0 0 1-.33-2.31 2.6 2.6 0 0 1 .27-1.32c.81-1.19 1.4-1.97 1.55-2.23zm-1.45 0v-2.39c.127.107.264.2.41.28a3.7 3.7 0 0 0 1.75.42h.12v.08a9.33 9.33 0 0 0-1.49.64.65.65 0 0 0-.18.15s-.16.32-.56.85l-.05-.03zm5.29-.64a6.86 6.86 0 0 0 1.56.15h.68l-.08 1.17h-.16a7.62 7.62 0 0 1-1.26.12 4.59 4.59 0 0 1-.93-.09 2.15 2.15 0 0 1-1.18-1.07 5.64 5.64 0 0 1-.36-.7c0-.09-.07-.16-.08-.21v-.08a7.56 7.56 0 0 0 1.86.74l-.05-.03zm-1.07-1.59a2.87 2.87 0 0 0 .75-.61l.25.68.13.35a6.87 6.87 0 0 1-1.09-.38l-.04-.04zm10.24-1.77h-2v-8.6a1.6 1.6 0 0 1 .69-1.25 2.9 2.9 0 0 1 1.28-.53l.03 10.38zm.83 1.15l-1.06.84-1.09-.84h2.15zm-1.54 1.21l-1.27 1v-2l1.27 1zm.48.37l1.76 1.35-1.79 1.42-1.67-1.28v-.11l1.7-1.38zm-.55 3.13l-1.2.92v-1.84l1.2.92zm.48.37l1.8 1.39-1.92 1.47-1.55-1.2v-.37l1.67-1.29zm-1 4.93a3.67 3.67 0 0 1-.27-.46l1.14-.88.64.49a9 9 0 0 0-1.12.56c-.117.1-.224.21-.32.33l-.07-.04zm1.27 4.25v7.4l-2-2.24v-4.37l2-.79zm-.89-6l-.89.69a4.1 4.1 0 0 1-.19-1.25v-.27l1.08.83zm-1 3.65L60.01 151l.36-1.06 3.52-.92.2.54zM62.36 138a1.52 1.52 0 0 1-.13-.37 2.85 2.85 0 0 1 0-.54 2.57 2.57 0 0 1 0-.43 1 1 0 0 1 0-.14 5.74 5.74 0 0 1 .48-.58l.12-.12v12.3l-.56.15-.15-1.27v-.14a8 8 0 0 0-1.12-4.38v-2.55h.09a2.58 2.58 0 0 0 .76-.09 1.07 1.07 0 0 0 .75-.78 1.43 1.43 0 0 0 0-.34 1.46 1.46 0 0 0-.16-.63l-.08-.09zm-1.17 10.54l-1.11.29-.38-.38 1.36-.57.13.66zm1.67-14.41l-.2-.44c-.06-.12-.1-.24-.13-.32v-.07a4.5 4.5 0 0 0 .18-.89 1.28 1.28 0 0 0-.25-.75c-.17-.25-.41-.55-.6-.78a2.58 2.58 0 0 0 .42-1.42 2.07 2.07 0 0 0-.84-1.77 3.81 3.81 0 0 0-.53-.29v-1.37a2.9 2.9 0 0 1 1.28.53 1.6 1.6 0 0 1 .69 1.25l-.02 6.32zm-1.36-1.81v.09s-.09.31-.17.75a.57.57 0 0 0 0 .1 1.09 1.09 0 0 0-.82 1 3.15 3.15 0 0 1 1.07-.14l.37.81v.06l-.12.12-.07.08-.91.44c.1.192.155.404.16.62 0 .32-.12.68-.75 1.17l.7.91.19-.16c0 .11.08.2.11.26s.06.14.06.16a1.54 1.54 0 0 1-.4 0h-.46c-.2 0-.43 0-1.7.1h-.35a3.51 3.51 0 0 1-.37-.3 12.33 12.33 0 0 1-.47-1.21 6.31 6.31 0 0 0 1.44-1c1.4-1.3 1.71-3.45 2-4.54.26.36.44.58.56.76l-.07-.08zM53.71 152a17.85 17.85 0 0 0 2.55 1.73h-1.92v-.09l-.67-1.64h.04zm-.87-2.51l3.72-2.75.5.59-3.22 3.17-1-1.01zm2.81 2.51c-.42-.27-.79-.52-1-.69l3.18-3.12.17.17.33.33-2.68 3.31zm3.5-2.5l.19.18-1.28 3.79-1.21-.72-.22-.13 2.52-3.12zm-7.55.27l.56 1.47 1.06 2.76c.012.19.012.38 0 .57a1.82 1.82 0 0 1-.12.76 11.69 11.69 0 0 0-1.1 5.6 2.39 2.39 0 0 0 .59 1.79c.177.17.393.295.63.36 0 .18.07.43.14.79a22.21 22.21 0 0 0 1 3.06 6.59 6.59 0 0 0-1.86-.57 5.44 5.44 0 0 0-.72 0h-.18v-16.59zm1.59 9.67c.86-.17 2.85-.56 4.08-.88 1-.27 2.34-.67 3.12-.92 0 .22.06.45.08.67-.8.24-2.54.76-3.58 1s-2.82.59-3.74.76c.01-.17.02-.38.04-.59v-.04zm3.79-2c-1 .27-2.65.6-3.62.79a8 8 0 0 1 .78-2.35 2.43 2.43 0 0 0 .25-1h3.83l.19.11.54.34a4 4 0 0 1 1.08 1 1 1 0 0 1 .1.2c-.75.26-2.13.69-3.13.95l-.02-.04zm2.31-4l.33-1 5-1.74.19.5-5.52 2.24zm3.32-.11l.33-.13v2.46a1.94 1.94 0 0 1-.33-.69v-1.64zm.8 4.74l2.47 2.8-.79.63-2.44-2.89.76-.54zm.78 4.15l-.61.48-2.18-2a1 1 0 0 0 .1-.19 4.13 4.13 0 0 0 .15-1.17h.07l2.47 2.88zm-1.52 1.21l-.86.68c-.18-.17-.38-.36-.62-.55v-1.46l1.48 1.33zm2.21 4l1.15.27c-.16.49-.33 1-.51 1.47-.64 1.83-1.28 3.51-1.53 4.16l-.24.12 1.13-6.02zm1.18 3.64v2.84a3.35 3.35 0 0 0-.84-.59c.2-.55.5-1.32.83-2.26l.01.01zm-3.23-5.3a2.15 2.15 0 0 0-.29-.76l4.07-3.23c.13.205.237.423.32.65l-3.48 2.7 3.15.8-.21.68-3.56-.84zm3.17-1.19l1.11-.86a7.41 7.41 0 0 1-.22 1.09l-.89-.23zm4-17a1.26 1.26 0 0 0-.3-.8l.63-.48 1.15.88a5.17 5.17 0 0 0-1.48.38v.02zm-.78-1.16a2 2 0 0 0-.79-.17 2.08 2.08 0 0 0-.59.09c-.27.08-.58.18-.9.3l-.79-.61 1.85-1.51 1.8 1.38-.58.52zM68 143.79l-1.8-1.39 1.86-1.4 1.8 1.38-1.86 1.41zm1.15-7.25h-2v-10.43c.464.074.903.26 1.28.54.415.284.67.748.69 1.25l.03 8.64zm-2.54-11.63a4.21 4.21 0 0 0-2.55.83 29.5 29.5 0 0 0-.79-7.61 8.68 8.68 0 0 0-.92-2.18 14.66 14.66 0 0 1 3.1 2.73 15.58 15.58 0 0 1 3.5 6.9 4.31 4.31 0 0 0-2.31-.67h-.03zm-3.71.81a4.23 4.23 0 0 0-2.53-.81 4.62 4.62 0 0 0-2.51.66v-11.23c2.45.19 3.6 1.7 4.34 4.1a28.39 28.39 0 0 1 .73 7.28h-.03zm-3.11.37v1.12a4 4 0 0 0-1.06.16 4.79 4.79 0 0 0-.8-.24 1.45 1.45 0 0 1 .54-.6 3.15 3.15 0 0 1 1.35-.43l-.03-.01zm-1.33 2.41l.2.09.21-.06c.3-.103.613-.16.93-.17.385.01.756.144 1.06.38a.78.78 0 0 1 .29.51 7.3 7.3 0 0 0-1.72-.17h-.52v1.15h.47a5.78 5.78 0 0 1 1.49.16 1.24 1.24 0 0 1-.52.42l-.14.06a2.81 2.81 0 0 0-.77-.09h-.59v1.15h.59a1.8 1.8 0 0 1 .38 0c-.29 1.18-.68 2.75-1.56 3.53-.88.78-1.54 1-1.81 1h-.52l-.18.34a1.73 1.73 0 0 1-.9.68c.01-.475.14-.94.38-1.35l-1-.54a4 4 0 0 0-.52 1.89v.27a3.18 3.18 0 0 1-.44 0v-.33a3.58 3.58 0 0 1 .54-2l-.94-.66a4.52 4.52 0 0 0-.74 2.42 1.76 1.76 0 0 1-.35-1.12 2.67 2.67 0 0 1 .61-1.71l.16-.17v-.41a5.83 5.83 0 0 1 1.15-4 4.69 4.69 0 0 1 3.3-1.58 3.62 3.62 0 0 1 1.48.32l-.02-.01zm-6.88 3.1v-3.72a1.6 1.6 0 0 1 .69-1.24 2.93 2.93 0 0 1 1.28-.54v2.14a6.16 6.16 0 0 0-.69.62 5.39 5.39 0 0 0-1.26 2.74h-.02zm3.12-4v-1.5a3.14 3.14 0 0 1 1.31.44c.21.132.386.314.51.53a5.53 5.53 0 0 0-1.8.5l-.02.03zm2-2a4.62 4.62 0 0 0-2.51-.66 4.23 4.23 0 0 0-2.53.81 27.86 27.86 0 0 1 .77-7.18c.74-2.38 1.9-3.92 4.31-4.18l-.04 11.21zm-6.24 21v19.8c-.37.063-.745.1-1.12.11a2 2 0 0 1-.69-.1l-.16-.06v-40.24c.463.07.903.252 1.28.53.415.284.67.748.69 1.25v14.39a3.86 3.86 0 0 0-.36 1.75 11.3 11.3 0 0 0 .35 2.6l.01-.03zm-2.73 20.69l.53.19a3.22 3.22 0 0 0 1.07.17c.84 0 1.6-.21 2.39-.21.19-.012.38-.012.57 0a5.51 5.51 0 0 1 2 .71c.198.11.389.234.57.37l.08 1c-1.7-.42-5.71-1.42-7.29-1.8a2.74 2.74 0 0 1 .08-.4v-.03zm8.73.63l-.58-.1c-.13-.32-.34-.88-.58-1.52a19.72 19.72 0 0 1-.83-2.66l-.12-.67.92-.2 1.19 5.15zm-.06-5.41l1-.24.29-.07.56 6-.53-.09-1.32-5.6zm-1.68 10.25l.51.14.3.11c.28.1.69.23 1.15.36v3.72h-2l.04-4.33zm4.66-1.37a3.58 3.58 0 0 1-.11.43 1.15 1.15 0 0 1-.5.64.9.9 0 0 1-.31 0h-.12l-.12-1.3 1.16.23zm-1.54 2.2c.206.014.414.014.62 0a1.63 1.63 0 0 0 1-.26 2.55 2.55 0 0 0 .37-.32v4h-2l.01-3.42zm2-5.11l-.42-.07-.6-6.54c.4-.12.78-.24 1.11-.35l.19-.07c0 .78 0 2-.09 3.24-.09 1.24-.15 2.75-.22 3.83l.03-.04zm-.69-7.91c-2 .66-5.33 1.35-5.51 1.38a.33.33 0 0 1-.23-.09 1 1 0 0 1-.22-.61c.82-.15 2.86-.55 4-.82 1-.24 2.45-.67 3.34-.94a3.7 3.7 0 0 1-.06.53 6.21 6.21 0 0 1-1.35.59l.03-.04zm.89-6.21l1.45-.59v.59h-1.45zm1.57 1.15c.19.442.438.856.74 1.23l.34.43-1.08.77a6.12 6.12 0 0 0-.54-2.2 2.38 2.38 0 0 0-.17-.23h.71zm.33 19.34c.163.014.327.014.49 0a4.44 4.44 0 0 0 2-.55.66.66 0 0 0 .22-.05h.11c.19.105.366.236.52.39a4.35 4.35 0 0 0 1.69.75 39.73 39.73 0 0 0 4.73.9c-.06.19-.05.18-.16.24a2.62 2.62 0 0 1-1 .15c-.38 0-.8 0-1.23-.05a30.35 30.35 0 0 1-3.57-.3 1.86 1.86 0 0 0-.43 0 37.84 37.84 0 0 0-3.79.41c-.07 0-.17 0-.21-.4a.49.49 0 0 1 0-.08c.092-.5.297-.972.6-1.38l.03-.03zm8.41.14v-24.24l.19-.12a9.9 9.9 0 0 0 1.55-1v25.69c-.42-.08-1.09-.17-1.77-.32l.03-.01zm1.51-28.3l-1.05-.81 1.3-1v.52a3.43 3.43 0 0 1-.28 1.32l.03-.03zm-1.53-1.18l-1.8-1.38 1.84-1.42 1.74 1.34v.1l-1.78 1.36zm.52-3.17l1.26-1v1.93l-1.26-.93zm-.48-.37l-1.8-1.39 1.8-1.39 1.73 1.33v.1l-1.73 1.35zm.48-3.14l1.25-1v1.93l-1.25-.93zm-23.31-27.27l-3-4.59V94.31A1.43 1.43 0 0 1 46 92.9a1.67 1.67 0 0 1 1.1.43c.29.251.458.616.46 1l-.02 17.23zm0-22.6l-3.16-8.74V49a89.971 89.971 0 0 1 3.16-3.22v43.18zm0 3.24a2.86 2.86 0 0 0-1.52-.45 2.63 2.63 0 0 0-2.05 1 3 3 0 0 0-2.24-1 3.34 3.34 0 0 0-1.71.48l3.77-10.42 3.75 10.39zm-4.31-12.37l-3.37 9.32v-34.9a72.158 72.158 0 0 1 3.37-4v29.58zm-2.86 13.52a2.1 2.1 0 0 1 1.3-.45 1.58 1.58 0 0 1 1.7 1.41V107l-3.51 5.42V94.31a1.26 1.26 0 0 1 .51-.96zM44 108.19l3.46 5.27a15.86 15.86 0 0 0-2.89 2.13v-2.72h-1.2v3.89A17.41 17.41 0 0 0 41.7 119a20.54 20.54 0 0 0-1.84 3.78v-8.28l4.14-6.31zm-2.41 17.9v51h-1.73v-49.3a1.71 1.71 0 0 1 1.69-1.69l.04-.01zm32.31 51.5V167.3l1.31-2.38v13.85l-1.31-1.18zm31 29.66a101.8 101.8 0 0 1-65.79-24h4.43l3.2 2.75h20.81l3-2.69h4.64a83.86 83.86 0 0 0 59.43 0h4.61l2.93 2.69h20.52l3.22-2.69h4.79a101.79 101.79 0 0 1-65.82 23.95l.03-.01zm42.03-147.3l2.07 3.22v11.41h-1.53V65.1l.54-.86-1.11-1.78-1.11 1.78.54.85v9.49h-2V63.83l2.6-3.88zm-2.61 1.83V32.59c.69.38 1.37.76 2 1.15v25l-2 3.04zm16.12 2.3v10.5h-2.2V65.1l.54-.86-1.11-1.78-1.11 1.78.54.86v9.48h-1.53V63.17l2.11-3.17 2.76 4.08zm-2.2-5.34V42.15c.75.63 1.47 1.28 2.2 1.94V62l-2.2-3.26zm-2 50.35v2.25a22.7 22.7 0 0 0-3.06-.29V111l3.59-5.47 3.67 5.59v1.47a17.76 17.76 0 0 0-3.05-1v-2.48l-1.15-.02zm-3.06-.21V93.51a1.73 1.73 0 0 1 1.35-.61 1.55 1.55 0 0 1 1.66 1.4v10l-3.01 4.58zm4.17-4.59v-10a1.43 1.43 0 0 1 1.45-1.4c.426.008.836.163 1.16.44.242.198.408.473.47.78V109l-3.08-4.71zm1.45-12.53a2.62 2.62 0 0 0-2 1 2.92 2.92 0 0 0-2.21-1 3 3 0 0 0-1.35.33v-.23l3.61-10 3.64 10.07v.37a3 3 0 0 0-1.69-.55v.01zm-2-13.3l-3.61 10V75.73h7.25v12.8l-3.64-10.07zm.3-31.1l-2.1-3.21-2.11 3.21V38a86.116 86.116 0 0 1 4.22 3.23l-.01 6.13zm-2.1-1.12l2.11 3.21v9.29l-1.53 2.33v-8h1v-1.16h-1v-2.22h-1.15v2.21h-1v1.15h1v8l-1.54-2.33v-9.27l2.11-3.21zm-.57 16.93v11.41h-1.54V65.1l.54-.86-1.11-1.78-1.11 1.78.54.86v9.48h-1.55V63.17l2.11-3.17 2.12 3.17zm-2.68-15.81l-2.11-3.21-2.11 3.21V34.42a82.786 82.786 0 0 1 4.22 2.73v10.21zm-2.11-1.12l2.11 3.21v9.29l-1.54 2.34v-8h1.1v-1.17h-1.1v-2.22H149v2.21h-1v1.15h1v8l-1.53-2.33v-9.27l2.17-3.21zm1.81 29.49v12.55l-3.52-9.73-3.59 9.93V75.73h7.11zm-3.52 6.19l3.52 9.73v.43a3 3 0 0 0-1.35-.33 2.92 2.92 0 0 0-2.21 1 2.62 2.62 0 0 0-2-1 2.68 2.68 0 0 0-1.49.47v-.36l3.53-9.94zm3.52 11.59v15.36l-3-4.59v-10a1.55 1.55 0 0 1 1.66-1.4c.51.007.993.237 1.32.63h.02zm-7.11.8a1.48 1.48 0 0 1 1.49-1.41 1.43 1.43 0 0 1 1.45 1.41v10l-2.94 4.49V94.31zm3.52 11.18l3.59 5.47v.04a22.77 22.77 0 0 0-3 .29v-2.23h-1.15v2.45a18.47 18.47 0 0 0-3 .95v-1.66l3.56-5.31zm4.55 6.67c7.93 0 12.2 3.68 14.6 7.52a19.78 19.78 0 0 1 2.34 5.55 3.85 3.85 0 0 0-1.6-.32 3.67 3.67 0 0 0-2.42.84 16.38 16.38 0 0 0-3.94-7.83 14.17 14.17 0 0 0-6.82-4.43 7.23 7.23 0 0 0-2.21-.31h-.66c-3.11.22-6.07 2.13-8.32 4.72a16.54 16.54 0 0 0-3.83 7.85 3.55 3.55 0 0 0-2.32-.86 3.78 3.78 0 0 0-1.83.49 19.56 19.56 0 0 1 2.37-5.76c2.33-3.79 6.6-7.44 14.62-7.46h.02zm6.55 71.7v-1.17h1.14v-1.15h1.17v1.15h1.14v1.17h-1.14V185h-1.17v-1.14h-1.14zM135 180.62l2-1.75h32.8v1.75H135zm18.35 3.24v-1.17h1.14v-1.15h1.17v1.15h1.14v1.17h-1.1V185h-1.17v-1.14h-1.18zm-5.56 0v-1.17H149v-1.15h1.17v1.15h1.14v1.17h-1.14V185H149v-1.14h-1.21zm-5.55 0v-1.17h1.14v-1.15h1.17v1.15h1.14v1.17h-1.09V185h-1.17v-1.14h-1.19zm3.29-53v7.75a3.37 3.37 0 0 1-1.63 3.12l-.11-.08a16.43 16.43 0 0 0-2.63-1.12 2.06 2.06 0 0 0-.72-.14 1.35 1.35 0 0 0-1.41 1.23h-.06l-.27-.13a3.46 3.46 0 0 1-1.18-2.85v-7.75l8.01-.03zm-8-1.15v-3.61a2 2 0 0 1 1.77 1.8v1.81h-1.77zm29 39.65a1.25 1.25 0 0 0-.64-.44l-.45-.17V127.9a1.82 1.82 0 0 1 1.7-1.78v51h-1.7v-3.26l.83-1.58a4.38 4.38 0 0 0 .55-1.92 1.65 1.65 0 0 0-.28-1h-.01zm-.92.69a.61.61 0 0 1 .07.32 3.29 3.29 0 0 1-.41 1.38l-2.54 4.8h-4.58a.57.57 0 0 1 .1-.21 3 3 0 0 1 1.14-.64c.53-.2 1-.32 1-.33l.25-.07 1.77-3.53c.18-.15.64-.52 1.17-.89a4.73 4.73 0 0 1 1.82-.9c.2.02.19.02.22.02l-.01.05zm-1.32 6v1.09h-.57l.57-1.09zm-7.19 1.09h-1v-6.64l2 .5v4a2.39 2.39 0 0 0-.76.65 1.61 1.61 0 0 0-.3.91 1.29 1.29 0 0 0 .07.55l-.01.03zm-2.49-8.17l.39-1.07 7.21 2.6-.38.3-7.22-1.83zm-4.53-2.97a3 3 0 0 1 0-.3v-.33l4.38.44-1 2.83-.72-.18h-.19l.69-2.07-3.16-.39zm.31 9.76v-.36a7.89 7.89 0 0 0-.17-1.61A7.24 7.24 0 0 1 150 172v-1.18c0-.78 0-1.48-.09-2.1l.26.17a6.64 6.64 0 0 0 1.57.58v7.66H150c.245-.377.37-.82.36-1.27l.03-.1zm-11.22 1.33h-1.6V144c.3.21.65.43 1 .65l.76.46V175a.57.57 0 0 0-.65.44 1.46 1.46 0 0 0 0 .33 2 2 0 0 0 .49 1.34v-.02zm0-33.46a11.09 11.09 0 0 1-1.36-.93.53.53 0 0 1-.2-.35.25.25 0 0 1 0-.11c.3.09.591.207.87.35.48.23 1 .51 1.38.69a4.33 4.33 0 0 0 1.53.48.89.89 0 0 0 .44-.11.76.76 0 0 0 .36-.47.91.91 0 0 0 0-.15.8.8 0 0 0-.4-.68c-.46-.27-1-.35-1.57-.65h-.06s0-.1.26-.11a1 1 0 0 1 .33.07 16.52 16.52 0 0 1 2.42 1c.287.142.493.407.56.72l-.54 1.22-1.19-.1-1.16-.08h-.44c-.22-.16-.7-.42-1.22-.77l-.01-.02zm10.75 1.2l-.26.72-4.85-1.68.14-.32 4.97 1.28zM145 142.4a4.8 4.8 0 0 0 .59-.56v.71l-.59-.15zm.59-12.69h-2v-3.6c.464.074.903.26 1.28.54.415.284.67.748.69 1.25l.03 1.81zm3.11 6.22v7.42l-2-.51V127.9a1.59 1.59 0 0 1 .69-1.25 2.85 2.85 0 0 1 1.27-.53v5.62a2.47 2.47 0 0 0-.58.45 2.27 2.27 0 0 0-.55 1.54 3.07 3.07 0 0 0 1.16 2.2h.01zm1.94-4.86v.14h-.06c-.188 0-.376.02-.56.06h-.14v-.67a8 8 0 0 0 .75.47h.01zm-.79-1.62v-3.35c.67.07 1.3.358 1.79.82l-.18.14a2.19 2.19 0 0 0-.59.57c-.45.66-.67 1.31-1.03 1.82h.01zm.36 2.94c.113-.01.227-.01.34 0 .326.009.637.141.87.37a2.67 2.67 0 0 0 1.43.7h.22a2.51 2.51 0 0 0 1.74-.83c.235.223.52.388.83.48-1.23 2.28-2.54 2.57-3.74 2.6h-.31c.14-.19.294-.371.46-.54l-.83-.79a6.91 6.91 0 0 0-.91 1.18 2.07 2.07 0 0 1-.58-.24l.14-.19c.273-.376.57-.733.89-1.07l-.81-.81a11.51 11.51 0 0 0-1 1.23 1.45 1.45 0 0 1-.21-.68 1.11 1.11 0 0 1 .26-.78 2.11 2.11 0 0 1 1.2-.63h.01zm8.89-4.11c.346.252.61.6.76 1a4.24 4.24 0 0 1 .44 1.76 2.75 2.75 0 0 1-.05.5 4.85 4.85 0 0 1-.54-1.15l-1.1.33a6.41 6.41 0 0 0 .94 1.83 2.68 2.68 0 0 1-.34.17 5.78 5.78 0 0 1-1-1.8l-1.11.31a6 6 0 0 0 .72 1.57 2.45 2.45 0 0 1-.88-.49l-.1-.09-.21-.22h-.46c-.43 0-.79-.25-1-.88a.71.71 0 0 1 0-.18c0-.4.43-.95.76-1.66l.2-.49-.46-.24a13.53 13.53 0 0 1-1.6-.79 1.59 1.59 0 0 1-.85-1.35.24.24 0 0 1 0-.1 1.18 1.18 0 0 1 .39-.49 3 3 0 0 1 1.17-.55 6.79 6.79 0 0 1 1.51-.18 2.93 2.93 0 0 1 2.14.73c.277.235.44.577.45.94a4.87 4.87 0 0 1-.17.9l-.07.43.46.19zm1-1.77a2.78 2.78 0 0 1 1.11-.41v3.41a5.67 5.67 0 0 0-.31-.78 3.82 3.82 0 0 0-.9-1.22 3.29 3.29 0 0 0 .1-.75 1.65 1.65 0 0 0-.04-.25h.04zm-11.2 44.29v1.18a8.29 8.29 0 0 0 .21 2.06v.26l-.38-.23-2.84-11.07 1.11-.43.88 2.35a14.93 14.93 0 0 1 1.02 5.88zm-.82-8.68l.62-.26v1.88l-.62-1.62zm-4.56 1.76l1.29-.5 2.56 9.89-.52-.3-3.33-9.09zm2.18 9.29c-.658.5-1.361.94-2.1 1.31v-7l2.1 5.69zm-3.4-9.28l.16.43v10.61a7.001 7.001 0 0 1-1.68.2h-.28v-29.58c.42 0 1 .08 1.59.11h.38v12.59a4.18 4.18 0 0 0-1.42 3 3.48 3.48 0 0 0 1.25 2.64zm-.14-2.49a.6.6 0 0 1 0-.09 2.39 2.39 0 0 1 .39-1.33l1 .82-1.39.6zm3.66-.29l-2.56-2c.17-.18.37-.37.59-.56.51.43 1.62 1.38 2.16 1.92.277.28.51.6.69.95h-.1l-3.7 1.44a2.62 2.62 0 0 1-.34-.41l3.26-1.34zm1-5.1a19.27 19.27 0 0 1 3.16-2.11l.59-.31-.11.87-5.28 3.72-.49-.42 2.13-1.75zm-.13-1.36v-7.09l2 .81v5a20.72 20.72 0 0 0-1.96 1.28h-.04zM157.84 135l.39.69.07.06-4.4 1.4a1.27 1.27 0 0 0-.15-.41l4.09-1.74zm-1.69-.52a7.89 7.89 0 0 0 .56-.95c.13.077.263.147.4.21l.15.26-1.11.48zm.35 11.82l1.17-.83.23.19.36-.34s.26-.25.62-.64c-.19.54-.35 1-.48 1.4l-1.9.22zm1.5 1c-.12.37-.19.62-.23.76l-4.18.39.07-.12.89-.62 3.45-.41zm-4.66-.16l-.62-.85 2.84-2.49 1.18.94-3.4 2.4zm4.81 2c.1.16.22.35.34.56.12.21.23.4.33.62l-6.72.63.16-1.25 5.89-.56zm1.06 2.29v.1c0 .16 0 .32.05.48l-7.4.74.08-.65 7.27-.67zm.2 1.73l.07.61-.84.08-7 .66.07-.58 7.7-.77zm-.19 4.36c.38-1.22.59-2.09.7-2.59h.87l-.08-.62s-.2-1.57-.34-2.86a8.2 8.2 0 0 0-1.45-3.19c0-.14.1-.34.19-.62.2-.64.55-1.66 1.09-3.19a18 18 0 0 0 .99-4.79v27.27c-.33-.19-.71-.4-1.11-.61l-.86-.43v-8.37zm1.54-20.76a13.15 13.15 0 0 0-1.61-1.8l-.55-1a3.29 3.29 0 0 0 1.61-.54 2.56 2.56 0 0 0 1-1.16v5.41a2.24 2.24 0 0 0-.46-.93l.01.02zm-1.54-.09c.211.235.408.482.59.74.1.133.178.282.23.44v.76a15.68 15.68 0 0 1-.19 2.36 7.12 7.12 0 0 1-1.34 2.35c-.26.33-.52.61-.71.81l-3.86-3.13 1.57-3.18 3.71-1.15zm-5.22 1.65l-1.49 3 .25.2-.35.35c-.07-.27-.14-.55-.19-.78a3.19 3.19 0 0 1-.06-.6 1.33 1.33 0 0 1 .3-.89c.21-.28.58-.63 1-1.14l.54-.14zm-.34 3.93l1 .79-2.66 2.28-.6-.82 2.26-2.25zm-1.86-3.63l-.26.31a2.51 2.51 0 0 0-.53 1.58c.004.276.034.55.09.82.09.49.27 1.13.38 1.51l-1 1-.66-.17v-7.08a3.3 3.3 0 0 0 .59.14 12 12 0 0 0 1.35.12l.04 1.77zm-.93 7l1.67 2.27a1.54 1.54 0 0 1-.84.64h-.25a1.74 1.74 0 0 1-1.16-.44 1.8 1.8 0 0 1-.24-.24l.82-2.23zm.23 4.06l-.31 2.53c-.22.09-.54.25-.93.45v-3.42a2.85 2.85 0 0 0 1.22.48l.02-.04zm-4.45 9.73l-.52-.48 4.59-3.23h.11l-.22 1.24-3.96 2.47zm4.07 3l.54-2.66.74-4.2 1.36-.13-2.15 8.86-.85-.08.36-1.79zm3.86-7.11l1.58-.15-3 9.31-.73-.07 2.15-9.09zm2.82-.26l1.33-.13c0 .13-.07.27-.11.43-.2.79-.54 2-1.08 3.53a43.34 43.34 0 0 1-1.77 4.22c-.33.69-.61 1.24-.78 1.57l-.73-.07 3.14-9.55zm.68 5.69v4.56a8.7 8.7 0 0 0-1.61-.43h-.25c.41-.86 1.16-2.36 1.84-4.07l.02-.06zm-2.39 5.27l.58.09a11.23 11.23 0 0 1 3.26 1.22c1 .54 1.84 1.07 2.3 1.28.46.21 1.23.5 2 .81l-.51.31-8-2.87.37-.84zm-6.42-19.31l-.22.61-4.86-2 .15-.35 4.93 1.74zm-3.7.44v8.49c-.75.62-1.4 1.15-2 1.64v-10.97l2 .84zm-4.81 29.18a7 7 0 0 0 3-.6 14.29 14.29 0 0 0 2.66-1.62l2.8 1.64v.06a1.14 1.14 0 0 1-.17.63c-.17 0-.71-.12-1.57-.12h-.67c-1.92.14-2.68.5-3.91.5h-.31c-1.59-.06-2.18-.16-2.5-.51a.87.87 0 0 1-.12-.14c.21.11.49.13.8.13l-.01.03zm8.4-16a9.77 9.77 0 0 1-1.32.65h-.07a5.43 5.43 0 0 0-.39-.67l2.92-1.83-.18 1a3.33 3.33 0 0 1-.94.87l-.02-.02zm1.07 6.87l1.47.16-.26.8a4.39 4.39 0 0 1-.68-.29 1.15 1.15 0 0 1-.52-.65l-.01-.02zm4.68 3v6.9h-2v-7.4l2 .5zm6.21 1.57l-1.27 2.54c-.17 0-.4.12-.66.21v-3.2l1.93.45zm3.16-3.49c-.78-.3-1.61-.63-2-.78v-41.4a2.9 2.9 0 0 1 1.28.53c.415.284.67.748.69 1.25l.03 40.4zm-2.54-43.38a4.33 4.33 0 0 0-2.1.51 3 3 0 0 0-.34-.4l-.11-.1a22.91 22.91 0 0 0-1-7.85 6.41 6.41 0 0 0-.33-.75 15.2 15.2 0 0 1 2.61 2.35 15.4 15.4 0 0 1 3.6 6.89 4.34 4.34 0 0 0-2.31-.62l-.02-.03zm-3.72-.69a5 5 0 0 0-1.7-.28 8 8 0 0 0-1.76.21 4 4 0 0 0-1.62.77v-10.56a8.2 8.2 0 0 1 .94.14l.23.06a4.49 4.49 0 0 1 3 2.93c.68 2.186.98 4.472.89 6.76l.02-.03zm-4.57 4.52a7.7 7.7 0 0 0 1.17.61 3.18 3.18 0 0 0-.58 1.61c0 .159.02.316.06.47v.14c-.23.31-.71.74-1.11.71h.01a1.64 1.64 0 0 1-.85-.46 3.56 3.56 0 0 0-.4-.28c0-.21.07-.47.11-.73a.58.58 0 0 0-.31-.58l-.6-.3c.31-.48.5-.92.72-1.3v.92s.22.21.71.24c.262.02.524-.017.77-.11a1.27 1.27 0 0 0-.34-.51 2.73 2.73 0 0 0-1.08-.54c.06-.1.12-.23.18-.32a1.11 1.11 0 0 1 .32-.3 3.45 3.45 0 0 0 .33-.27 3.2 3.2 0 0 0 .91 1.03l-.02-.03zm-4.19-3.83a4.26 4.26 0 0 0-2.52.81 28.35 28.35 0 0 1 .75-7.28c.73-2.39 1.88-3.89 4.3-4.09v11.26a4.87 4.87 0 0 0-2.51-.67l-.02-.03zm-2.9-6.79a29.4 29.4 0 0 0-.79 7.62 4.23 4.23 0 0 0-2.54-.83 4.29 4.29 0 0 0-2.32.66 15.55 15.55 0 0 1 3.49-6.9 14.62 14.62 0 0 1 3.09-2.73 8.78 8.78 0 0 0-.91 2.21l-.02-.03zm-5.2 8.53a2.89 2.89 0 0 1 1.28-.53v3.6h-2v-1.79a1.59 1.59 0 0 1 .74-1.26l-.02-.02zm27.12 50.47v-51a1.91 1.91 0 0 1 1 .46c.245.24.407.552.46.89v49.65h-1.46zm-.33-58a17.91 17.91 0 0 0-1.64-2.24v-4h-1.15v2.77a16.18 16.18 0 0 0-2.92-2.19l3.46-5.27 4.1 6.26v8.43a20.94 20.94 0 0 0-1.8-3.77l-.05.01zM166.29 107V94.31a1.58 1.58 0 0 1 1.7-1.4c.475 0 .936.158 1.31.45.292.216.478.548.51.91v18.1l-3.52-5.37zm3.45-14.71a3.34 3.34 0 0 0-1.75-.51 3 3 0 0 0-2.25 1 2.61 2.61 0 0 0-2-1 2.73 2.73 0 0 0-1.47.43L166 81.83l3.74 10.46zm-3.15-12.11V50.3a77.957 77.957 0 0 1 3.22 3.87v34.9l-3.22-8.89zm-1.15-.21l-3.24 8.95V45.73a84.123 84.123 0 0 1 3.24 3.3v30.94zm-1.74 13a1.43 1.43 0 0 1 1.45 1.4V107l-2.94 4.48v-17.3a1.5 1.5 0 0 1 1.48-1.28l.01.07zm-24.22 1.41a1.43 1.43 0 0 1 1.45-1.41 1.83 1.83 0 0 1 1.16.44 1.3 1.3 0 0 1 .5 1v17.47l-3.09-4.8V94.31l-.02.07zm3.1-5.23l-3.24-9v-50a80.953 80.953 0 0 1 3.24 1.59v57.41zm-.09 3.14a3 3 0 0 0-1.56-.47 2.6 2.6 0 0 0-2 1 2.93 2.93 0 0 0-2.21-1c-.59 0-1.17.167-1.67.48l3.75-10.37 3.69 10.36zm-4.3-12.16l-3.25 9V28.22c1.09.43 2.18.87 3.25 1.35v50.56zm-2.77 13.29a2 2 0 0 1 1.25-.44 1.56 1.56 0 0 1 1.66 1.4V107l-3.4 5.18V94.27a1.28 1.28 0 0 1 .48-.93l.01.08zm3.48 14.85l3.43 5.32a16 16 0 0 0-2.82 2.11V113h-1.15v3.78a16.83 16.83 0 0 0-1.63 2.21 20.4 20.4 0 0 0-1.81 3.74v-8.52l3.98-5.94zm-4 19.7a1.67 1.67 0 0 1 .64-1.27c.25-.207.539-.36.85-.45v38.6l-1.49-2.71V127.9v.07zm.87 39.4v10.3l-1.31 1.17v-13.92l1.31 2.45zm41.36 10c-1.52 1.53-3.11 3-4.72 4.43v-27.41c21.452-29.388 21.452-69.272 0-98.66V51.9l-1.33-2.2-1.29 2.2v.41a83.89 83.89 0 0 0-7.61-8.18v-1.92l-1.75-2.43v2.76a83.83 83.83 0 0 0-16.12-11.25v-1.46l-1.75-2.56v3.1a83.31 83.31 0 0 0-7.64-3.4V23l-1.3-2.22L132.3 23v3a83.33 83.33 0 0 0-11.69-3.12v-14l-.89-1.12-.87 1.12v13.7c-.9-.15-1.8-.29-2.7-.41V3.41c39.061 4.337 72.178 30.682 85.187 67.767 13.008 37.086 3.606 78.346-24.187 106.133l-.02.06zM177 97.26v-1h-1.15v1h-1v1.15h1v2.2l-3.44 5.26V86.09l7.94 11.35v8.28l-3.35-5.1v-2.2h1v-1.15l-1-.01zm-.57 4.57l3.92 6v2.79a3.14 3.14 0 0 0-1.73-.53 2.84 2.84 0 0 0-2.19 1 2.9 2.9 0 0 0-2.22-1 3.26 3.26 0 0 0-1.79.54V108l4.01-6.17zm2.81 20.43a2.8 2.8 0 0 0-1.58-2.51h2.68v5h-2.65a2.8 2.8 0 0 0 1.57-2.48l-.02-.01zm-2.79 2.21a2.21 2.21 0 1 1 2.2-2.21 2.21 2.21 0 0 1-2.18 2.22l-.02-.01zM177 118v-5.35a1.52 1.52 0 0 1 1.61-1.4c.453 0 .892.16 1.24.45.277.214.454.532.49.88V118H177zm-4.09-6.31a2 2 0 0 1 1.29-.45 1.55 1.55 0 0 1 1.65 1.41V118h-3.44v-5.43a1.26 1.26 0 0 1 .53-.88h-.03zm2.32 8.06a2.79 2.79 0 0 0 0 5h-2.79v-5h2.79zm6.87 6.77V81.88l-.89-1.41-.86 1.41v13.56l-7.94-11.35V57.7c19.92 28.428 19.92 66.282 0 94.71v-25.89h9.69zM177.57 107l-1.11-1.78-1.12 1.78 1.11 1.78 1.12-1.78zm-36.8-88.81l1.07.48.47-1 1 .47.48-1.07-1-.47.47-1-1.07-.6-.47 1-1-.47-.48 1.07 1 .47-.47 1.12zm-.21 3l-1.07-.48-.47 1-1-.47-.48 1.07 1 .47-.47 1 1.07.48.47-1 1 .47.48-1.07-1-.47.47-1zm43.36 28.64h.07v-1.85l-1.78-.25h-.05v.73L176.32 53l-.29-.11-.14-1.55 5.24-4c.43-.33.66-.11.66-.11l.07-.06v-2.11l-1.88-.23h-.07c.177.284.264.615.25.95l-5.41 4.15a.58.58 0 0 1-.57.1l-.07.06.32 2.62A29.88 29.88 0 0 1 178 54l5.25-4a.63.63 0 0 1 .68-.17h-.01zm-29.6-21.11l-1-.65-.64 1-.95-.63-.65 1 .95.64-.64.95 1 .65.64-.95.95.64.65-1-.95-.63.64-1.02zM117 64.07l1.11 1.78 1.11-1.78-1.11-1.78-1.11 1.78zm34.36-39v-.09l-1.86-2 3.77-1.44-.19-.4-.58.26A14.39 14.39 0 0 1 151 19a27 27 0 0 1-4.32-.68l-1.3 2.52a.65.65 0 0 1-.64.31v.07l2 2.34-4.91 1.94.23.29.94-.34a14.39 14.39 0 0 1 2 2.32c1.48 0 2.956.137 4.41.41l1.46-2.82a.58.58 0 0 1 .5-.29h-.01zM147 27.48h-.34a20.24 20.24 0 0 0-2.12-2.54l3.25-1.3.77.84-1.56 3zm1.28-4.48l-.78-1 1.41-2.72h.2a20.69 20.69 0 0 0 1.81 2.72l-2.64 1zm25.9 15.43l.07-.07-.5-2.34-1.86-.12-.33-2a9.53 9.53 0 0 1-1.94 0l-.05.06c.29.28.55.81.45.91l-4.84 5.05a.61.61 0 0 1-.62.19l-.05.06.23 1.84h1.79l-.12-.72 4.81-5 .83.07.25 1.08-4.63 4.82c-.38.4-.64.21-.64.21l-.07.07.36 2.08 1.9-.05.06-.06a1.68 1.68 0 0 1-.39-.9l4.72-4.92a.58.58 0 0 1 .57-.27v.01zm3.22 4.44a.58.58 0 0 1 .55-.15l.07-.06-.1-2.12a7.41 7.41 0 0 1-1.92-.14l-.06.05s.66.69.26 1.07l-5 4.47c-.41.37-.66.17-.66.17l-.07.07.2 2.1 1.9.08h.06a1.61 1.61 0 0 1-.32-.93l5.09-4.61zm-14.62-5.23s4.06-5.18 4.32-5.5a.62.62 0 0 1 .59-.25v-.06l-.41-1.8-1.78.2v.05l.19.7-4.29 5.47h-.85l-.35-1 4.12-5.26c.34-.43.62-.28.62-.28l.05-.07-.56-2-1.88.24v.07a1.6 1.6 0 0 1 .47.86l-4.21 5.36a.57.57 0 0 1-.52.24l-.07.07.74 2.28 1.87-.06.52 1.94a9.78 9.78 0 0 1 1.93-.19v-.07c-.28-.33-.6-.83-.51-.94h.01zM86.14 203.18l2-1.52v-.75a19.25 19.25 0 0 0-2.3 1.06c.047.415.148.821.3 1.21zM181.48 39.5H179s-.36.46-.48.58c.81.234 1.636.414 2.47.54a4.86 4.86 0 0 0 .49-1.12zM98.73 15.3l-1.11-1.78-1.12 1.78 1.11 1.78 1.12-1.78zM95.19 31l-1.11-1.78L93 31l1.11 1.78L95.19 31zm-61.45 92.75v-.92h.92v-1.15h-.92v-.92h-1.15v.92h-.92v1.15h.92v.92h1.15zM109.41 31l-1.11-1.78-1.11 1.78 1.11 1.78 1.11-1.78zM106 12.09l-1.11-1.78-1.11 1.78 1.11 1.78 1.11-1.78zM32.09 107l1.11 1.78 1.12-1.78-1.11-1.78-1.12 1.78zm81-91.61l-1.09-1.8-1.11 1.78 1.11 1.78 1.09-1.76zM38.31 40.71l.06.06 2.36-.6.65 3.91A8.26 8.26 0 0 1 44 43.3a15.51 15.51 0 0 1 1.16-3.3L43 37.66a.59.59 0 0 1-.15-.56l-.06-.1-2 .64-.49-3.14a9.4 9.4 0 0 1-2.7.34A16.77 16.77 0 0 1 36.25 38l1.92 2.08a.61.61 0 0 1 .14.63zM41.85 39l2.29 2.49-.07.26a13.58 13.58 0 0 0-2.55.61L41 39.29l.85-.29zm-4.39-2.59a15 15 0 0 0 2.71-.26l.34 2.49-1 .18-2.08-2.25.03-.16zm10.43-5.62a5.79 5.79 0 0 0-.47 2.93 4.71 4.71 0 0 1 2.64 0v-3a5.57 5.57 0 0 1 .76-2.83l.53-.81a5.18 5.18 0 0 1 2.41.09v-2.22a3.69 3.69 0 0 1 .61-2.43H55c2 0 3.4-.07 4.37-.84a8 8 0 0 0-.7 3.12v2.78l-.14.16a3.3 3.3 0 0 1-1.92.78H54a7.35 7.35 0 0 1 0 2.42 5.37 5.37 0 0 0 2.26-.36 5.15 5.15 0 0 0-.4 2.42 5.63 5.63 0 0 1 2.72 0v-2.88a5 5 0 0 1 .35-2.23 5.46 5.46 0 0 1 2.1 0v-4.82c0-.89-.19-3.33.5-4.38l.85-1.29-.31-.21-.25.38-.82 1.29-.12.17a4.18 4.18 0 0 1-3.2 1.06h-1.75c-.86 0-1.36-.4-1.36-.69h-.49v2.71c-.14.1-.39.3-.69.55a3.4 3.4 0 0 1-1.93.79h-2.12a6.5 6.5 0 0 1 0 2.28 4.94 4.94 0 0 0 1.91-.24 4.2 4.2 0 0 0-.2 1.35l-.58.88a3.74 3.74 0 0 1-2.22 1.09h-3a7.34 7.34 0 0 1 0 2.41 6.65 6.65 0 0 0 2.64-.41v-.02zm21.24-9.63a5 5 0 0 0-.51 2.54 5.6 5.6 0 0 1 2.72 0v-2.81a5.27 5.27 0 0 1 .33-2.19l1-1.53a5.8 5.8 0 0 0 2.64-.55 4.47 4.47 0 0 0-.51 2.4 5.17 5.17 0 0 1 2.49 0v-2.6a3.93 3.93 0 0 1 .36-2.12l1.45-2.19h2.85l-1.47 1.73a4.33 4.33 0 0 0-1 3.22 5.4 5.4 0 0 1 2.61 0v-2.7a4.7 4.7 0 0 1 .35-2.17 4.71 4.71 0 0 1 3.46 2l.32-.19-1.48-2.4a5.12 5.12 0 0 0-4.34-2h-7.33a2.48 2.48 0 0 1 .25 2.16 3.56 3.56 0 0 1-2.12 1h-3a7.35 7.35 0 0 1 0 2.42c1.83 0 3.25-.3 4.42-1.86l1-1.32h5.05l-1 1.55a3.76 3.76 0 0 1-2.23 1.09h-3a7.12 7.12 0 0 1 0 2.1L71.6 18a3.62 3.62 0 0 1-2.17 1h-2.57a7.28 7.28 0 0 1 0 2.41 5.36 5.36 0 0 0 2.27-.23v-.02zm11.06 88.67h1.15v-.92h.92v-1.15h-.92v-.92h-1.15v.92h-.92v1.15h.92v.92zm1.64-39.33l-1.11-1.78-1.11 1.78 1.11 1.78 1.11-1.78zm7.06 46.26H90v-.92h1v-1.15h-1v-.92h-1.1v.92H88v1.15h.92l-.03.92zm2.64-54.49l-1.11 1.78 1.11 1.78 1.11-1.78-1.11-1.78zm28.07 54.5h1.15v-.92h.92v-1.15h-.92v-.92h-1.15v.92h-.92v1.15h.92v.92zm-88-77.11c.153-.83.25-1.668.29-2.51a4.65 4.65 0 0 0-1.19-.38l.3 2.49c.22.132.435.275.64.43l-.04-.03zm87.92 10.1h1.15v-1.12h1.15v-1.15h-1.15v-1.16h-1.15v1.15h-1.16v1.15h1.16v1.13zM116.69 31l-1.11-1.78-1.11 1.78 1.11 1.78 1.11-1.78zm-1.52 18.8h1.15v-1.16h1.16v-1.15h-1.16v-1.16h-1.15v1.16H114v1.15h1.16l.01 1.16zm-34.43 61.37a2.79 2.79 0 1 0-2.8-2.8 2.8 2.8 0 0 0 2.8 2.8zm0-5a2.21 2.21 0 1 1 0 4.42 2.21 2.21 0 0 1 0-4.42zm-47-60.4l-.07-.06-1.9.92-.95-3a9.31 9.31 0 0 1-2.62.74 16.75 16.75 0 0 1-.88 3.29l2.2 1.78a.62.62 0 0 1 .24.6l.06.05 2.25-.94 1.21 3.77a8.49 8.49 0 0 1 2.51-1.15c.086-1.167.3-2.32.64-3.44l-2.47-2a.59.59 0 0 1-.19-.57l-.03.01zM30.7 48l-2.39-1.93v-.15a15.08 15.08 0 0 0 2.69-.68l.7 2.42-1 .34zm5 2.24c-.84.255-1.654.59-2.43 1l-1-3 .81-.38 2.63 2.12-.01.26zM84.09 196h-2.92a1.34 1.34 0 0 1-.89-.36 3.12 3.12 0 0 0 0-.58 3.19 3.19 0 0 0-.44-1.5 4.29 4.29 0 0 0 1.31.2h1.12a2.55 2.55 0 0 1-.3-1.3 6.08 6.08 0 0 1 .16-1.3h-3.67a2.22 2.22 0 0 1-1.68-1l-.1-.14c-.38-.57-.84-1.23-1-1.57h-4a3.64 3.64 0 0 0 1.64-1.34c.32-.45.69-1 .69-1l-1.85-1s-1.07 1.67-1.43 2.16a2.66 2.66 0 0 1-2.2 1.24h-.36a4.6 4.6 0 0 1-4-1.9l-.34.2 1.56 2.38 1.85 2.81a6.87 6.87 0 0 1 .66 3.28v2.41a9.88 9.88 0 0 1 2.54 0v-1.35a3.78 3.78 0 0 0-.6-1.8c.477.207.99.312 1.51.31h1.28a4.89 4.89 0 0 1-.13-1.21 5 5 0 0 1 .13-1.11h-3.28a3 3 0 0 1-2-1.1l-.84-1.27a7.31 7.31 0 0 0 3.68.66h6.51a8.06 8.06 0 0 1 .68 3.56v1.47a8.27 8.27 0 0 1 2.65 0v.05a3.58 3.58 0 0 1 .26 1.65v2.5a4.47 4.47 0 0 1 2.17 0 3.9 3.9 0 0 0-.45-2.33 3.1 3.1 0 0 0 1 .17h1.12a1.86 1.86 0 0 1-.25-1 2.88 2.88 0 0 1 .21-.89zM21.14 74.33c.43.72.1.94-.76 1.64l-6.17-2.15-.21-.38a11.59 11.59 0 0 1 2.3-.59v-.09a6.84 6.84 0 0 1-1-1.62h-.09l-2.32.76.76 1.68-1.65.92a9.51 9.51 0 0 1 .8 1.76h.08c.13-.39.5-.84.64-.78l6.34 2.21a.61.61 0 0 1 .43.49h.08a15 15 0 0 1 2.19-1.88l-1.1-2.19-.32.22zm19.35-29.6l-.06-.05a1.63 1.63 0 0 1-.89.41l-5-4.57a.58.58 0 0 1-.2-.54l-.07-.07-2.09.32a7.48 7.48 0 0 1 .06 1.93l.06.05s.63-.73 1-.36l4.95 4.48c.4.37.23.64.23.64l.07.06 2.07-.41-.13-1.89zM25.1 66.59a1.65 1.65 0 0 1-.71.68l-6.77-3a.58.58 0 0 1-.36-.45h-.09l-2.37 1.63a11.83 11.83 0 0 1 .57 3.55l5.85 2.58a.62.62 0 0 1 .39.52h.07L24 70.65l.9 1.86L26.79 71l-1.62-4.41h-.07zM22 69.9l-6.55-2.85v-.09L17 66l6.11 2.69.24.51-1.35.7zm2.32.79l-.83-1.81 2.24 1-1.41.81zM27.5 61c.3.79-.36 1.08-1.6 1.85l-2-1.15a23.25 23.25 0 0 1-.82-3.95h-3.52a17.38 17.38 0 0 1-.26 3.45l5.85 3.3a.6.6 0 0 1 .33.55h.07a18.72 18.72 0 0 1 3-1.83l-.71-2.37-.34.15zm-7.6-1.54l3-.08s.28 1.18.52 2l-3.52-1.92zm11.17-2.77l2-.76-.46-1.93h-.07a1.65 1.65 0 0 1-.81.56L26 50.9a.58.58 0 0 1-.29-.5l-.08-.05-2.2 1 .25 1.85-1.87.72c.19.62.317 1.256.38 1.9h.07c.22-.34.68-.7.8-.62L29 58.94a.62.62 0 0 1 .31.57h.07l1.7-.51-.37-1.75h-.06l-.68.26-5.87-3.8-.1-.83 1-.46L30.66 56c.46.29.34.59.34.59l.07.1zm29.54 32l1.11 1.78 1.11-1.78-1.11-1.78-1.11 1.78zM71 90.47l1.11-1.78L71 86.91l-1.11 1.78L71 90.47zm-27.18 0l1.11-1.78-1.13-1.83-1.11 1.78 1.13 1.83zm-28-8A23.28 23.28 0 0 1 14 78.82h-.09l-3.32.91a16.77 16.77 0 0 1 .63 3.4l6.49 1.7a.62.62 0 0 1 .46.45h.08a18.77 18.77 0 0 1 2.48-2.55l-1.33-2.11-.31.21C19.58 81.52 19 82 18 83l-2.18-.53zm-4.41-1.16l2.84-.83s.57 1.07 1 1.84l-3.84-1.01zM54 88.64l-1.11-1.78-1.09 1.78 1.11 1.78L54 88.64zm-41 13a23.06 23.06 0 0 1-2.66-3h-.09l-3 1.72a16.93 16.93 0 0 1 1.47 3.13h6.71a.62.62 0 0 1 .57.32h.08a18.52 18.52 0 0 1 1.74-3.09L16.09 99l-.24.28c.65.54.22 1.12-.48 2.39l-2.37-.03zm-4.56 0l2.56-1.5s.82.89 1.46 1.52l-4.02-.02zm10.6 27.58l-6.22 2.06a.59.59 0 0 1-.57-.09h-.09l-.66 2.25 2 1.17-3.18 1.05-.84 1.72a9.36 9.36 0 0 1 1.72.9h.07c-.13-.39-.11-1 0-1l9.52-3.16c.52-.17.66.1.66.1h.09l.66-2-1.71-.84h-.07a1.69 1.69 0 0 1-.08 1l-6.54 2.17-.74-.43.31-1.09 6.75-2.24a7.44 7.44 0 0 1 2.32-.58v-.17s-2.03-1.23-3.37-.79l-.03-.03zM5.9 96.92H6s.09-1 .64-.89l9.52 1.14c.54.07.56.38.56.38h.09L18.23 96 17 94.56a1.65 1.65 0 0 1-.49.85l-9.65-1.15a.59.59 0 0 1-.48-.32h-.09l-1.53 1.47c.443.452.827.96 1.14 1.51zm9.61 29a23.32 23.32 0 0 1-3.4-2.17h-.09l-2.38 2.49a16.91 16.91 0 0 1 2.29 2.6l6.44-1.88a.63.63 0 0 1 .63.15h.08a18.86 18.86 0 0 1 .81-3.46l-2.19-1.15-.15.34c.77.33.52 1 .21 2.43l-2.25.65zm-4.37 1.28l2-2.18s1 .62 1.82 1.06l-3.82 1.12zM6.57 91.4c.08-.4.38-.9.52-.87l9.28 1.78a.61.61 0 0 1 .5.42h.08l2-2.1-1.42-3.4L11.27 86a.6.6 0 0 1-.46-.35h-.09l-1.93 2 .92 1.49L7 88.67l-1.57 1.09a9.59 9.59 0 0 1 1.06 1.62l.08.02zM11 87.83l7 1.31v.05l-1.21 1.33-6.7-1.26-.17-.26L11 87.83zm4.79 27.11l1.27 1.3a6 6 0 0 0 1.28-1.24l-1.27-1.3a5.59 5.59 0 0 0-1.29 1.24h.01zm-7.53 6.21l1.65 1H10a1.64 1.64 0 0 1 .21-1l3.08-2.34 6.2 2.06a17.44 17.44 0 0 1-.89-2c-3.35-1-9.47-3.12-10.12-3.48H8.4l-.88 1.63 1.47 1H9c-.06-.33.32-.65.32-.65l2.3.74-2.86 2-.5 1.04zM21 138.77c-.063.95 0 1.906.19 2.84-1-.9-2.07-1-3.73-1a7.92 7.92 0 0 1 0 2.68h2.36a6 6 0 0 1 3.18 1.13l.6.91a3.86 3.86 0 0 0-2.21-.4 6.52 6.52 0 0 1 0 2.24h2.08a3.13 3.13 0 0 1 1.75.67v2.08a9.78 9.78 0 0 0 1.88 5.35l.27.4c-1-.71-1.84-.62-3.72-.59l-.23-.3-3.17-4.78a4.08 4.08 0 0 1-.34-2v-2.41a5.06 5.06 0 0 1-2.48 0 3.41 3.41 0 0 0 .63 2.43 6 6 0 0 0-2.25-.29 6.47 6.47 0 0 1 0 2.24h2.54a2.73 2.73 0 0 1 2.08 1l.91 1.38c-.9-.72-1.81-.83-3.38-.83a7.84 7.84 0 0 1 0 2.75h2.84a3.81 3.81 0 0 1 2.24.92c.303.72.367 1.52.18 2.28l2.08.07a6.54 6.54 0 0 1 5 2.69l.32.48a7.5 7.5 0 0 0 .32 1.71c-1.77-2.11-2.63-2-6.42-2a6.72 6.72 0 0 1 .07 2.32h3.24a5.84 5.84 0 0 1 4.47 2.49l.23.35c.81 1.21 1.48 2.13 1.48 2.13l.33-.21s-.54-.76-.79-1.17c-.54-.85-.58-3.36-.58-4.68v-8.69a7.61 7.61 0 0 1-2.39-.09v7l-1.74-2.63-.71-1.13c-.54-.85-.56-3.46-.56-4.79v-.85c0-.58.05-2.64.84-2.64v-.44h-3l-.09-.11-1.55-2.33a7 7 0 0 1-.38-2.32v-3.84a4.87 4.87 0 0 1-2.39-.02zM9.25 111.62l6.51-.51a.63.63 0 0 1 .59.27h.08l1.42-2.56-2.26-2.91-7.05.55a.59.59 0 0 1-.53-.22h-.09c-1.1 2-2.11 3.61-3.41 5.63a7.14 7.14 0 0 1 1.56 1.26h.08c0-.49 1.8-3.36 1.8-3.36l1.3 1.85zm-.38-3.37l7.59-.6-.83 1.6-7.23.57-.3-.39.77-1.18z"/>
  </g>
</svg>
